<?xml version="1.0" encoding="utf-8"?>
<!-- Generator: Adobe Illustrator 23.0.3, SVG Export Plug-In . SVG Version: 6.00 Build 0)  -->
<svg version="1.1" id="container" xmlns="http://www.w3.org/2000/svg" xmlns:xlink="http://www.w3.org/1999/xlink" x="0px" y="0px"
	 viewBox="0 0 11989.1 2758.6" style="enable-background:new 0 0 11989.1 2758.6;" xml:space="preserve">
<style type="text/css">
	.st0{font-family:'MyriadPro-Regular';}
	.st1{font-size:80px;}
</style>
<g transform="translate(0,0)">
</g>
<text transform="matrix(-1.836970e-16 -1 1 -1.836970e-16 128.6514 1903.585)" class="st0 st1">27.02</text>
<text transform="matrix(-1.836970e-16 -1 1 -1.836970e-16 297.5781 1903.585)" class="st0 st1">28.02</text>
<text transform="matrix(-1.836970e-16 -1 1 -1.836970e-16 625.4326 1903.5859)" class="st0 st1">01.03</text>
<text transform="matrix(-1.836970e-16 -1 1 -1.836970e-16 779.3945 1903.5859)" class="st0 st1">02.03</text>
<text transform="matrix(-1.836970e-16 -1 1 -1.836970e-16 948.3213 1903.5859)" class="st0 st1">03.03</text>
<text transform="matrix(-1.836970e-16 -1 1 -1.836970e-16 1110.7725 1903.5859)" class="st0 st1">04.03</text>
<text transform="matrix(-1.836970e-16 -1 1 -1.836970e-16 1263.2241 1903.5859)" class="st0 st1">05.03</text>
<text transform="matrix(-1.836970e-16 -1 1 -1.836970e-16 1424.165 1903.5859)" class="st0 st1">06.03</text>
<text transform="matrix(-1.836970e-16 -1 1 -1.836970e-16 1596.6162 1902.5781)" class="st0 st1">07.03</text>
<text transform="matrix(-1.836970e-16 -1 1 -1.836970e-16 1755.5439 1902.5781)" class="st0 st1">08.03</text>
<text transform="matrix(-1.836970e-16 -1 1 -1.836970e-16 1916.9883 1902.5781)" class="st0 st1">09.03</text>
<text transform="matrix(-1.836970e-16 -1 1 -1.836970e-16 2077.9287 1902.5781)" class="st0 st1">10.03</text>
<text transform="matrix(-1.836970e-16 -1 1 -1.836970e-16 2246.8564 1902.5781)" class="st0 st1">11.03</text>
<text transform="matrix(-1.836970e-16 -1 1 -1.836970e-16 2398.3008 1902.5781)" class="st0 st1">12.03</text>
<text transform="matrix(-1.836970e-16 -1 1 -1.836970e-16 2570.2485 1902.5781)" class="st0 st1">13.03</text>
<text transform="matrix(-1.836970e-16 -1 1 -1.836970e-16 2731.1895 1902.5781)" class="st0 st1">14.03</text>
<text transform="matrix(-1.836970e-16 -1 1 -1.836970e-16 2892.1309 1902.5781)" class="st0 st1">15.03</text>
<text transform="matrix(-1.836970e-16 -1 1 -1.836970e-16 3054.0781 1902.5781)" class="st0 st1">16.03</text>
<text transform="matrix(-1.836970e-16 -1 1 -1.836970e-16 3215.7607 1902.5781)" class="st0 st1">17.03</text>
<text transform="matrix(-1.836970e-16 -1 1 -1.836970e-16 3376.334 1902.5781)" class="st0 st1">18.03</text>
<text transform="matrix(-1.836970e-16 -1 1 -1.836970e-16 3545.2607 1902.5781)" class="st0 st1">19.03</text>
<text transform="matrix(-1.836970e-16 -1 1 -1.836970e-16 3704.1875 1902.5781)" class="st0 st1">20.03</text>
<text transform="matrix(-1.836970e-16 -1 1 -1.836970e-16 3863.1152 1902.5781)" class="st0 st1">21.03</text>
<text transform="matrix(-1.836970e-16 -1 1 -1.836970e-16 4027.0762 1902.5781)" class="st0 st1">22.03</text>
<text transform="matrix(-1.836970e-16 -1 1 -1.836970e-16 4186.0039 1902.5781)" class="st0 st1">23.03</text>
<text transform="matrix(-1.836970e-16 -1 1 -1.836970e-16 4358.4551 1902.5781)" class="st0 st1">24.03</text>
<text transform="matrix(-1.836970e-16 -1 1 -1.836970e-16 4520.9062 1902.5781)" class="st0 st1">25.03</text>
<text transform="matrix(-1.836970e-16 -1 1 -1.836970e-16 4681.8477 1902.5781)" class="st0 st1">26.03</text>
<text transform="matrix(-1.836970e-16 -1 1 -1.836970e-16 4844.2988 1902.5781)" class="st0 st1">27.03</text>
<text transform="matrix(-1.836970e-16 -1 1 -1.836970e-16 5003.2266 1902.5781)" class="st0 st1">28.03</text>
<text transform="matrix(-1.836970e-16 -1 1 -1.836970e-16 5164.6709 1907.9619)" class="st0 st1">29.03</text>
<text transform="matrix(-1.836970e-16 -1 1 -1.836970e-16 5325.6113 1907.9619)" class="st0 st1">30.03</text>
<text transform="matrix(-1.836970e-16 -1 1 -1.836970e-16 5484.5391 1907.9619)" class="st0 st1">31.03</text>
<text transform="matrix(-1.836970e-16 -1 1 -1.836970e-16 5635.9824 1907.9619)" class="st0 st1">01.04</text>
<text transform="matrix(-1.836970e-16 -1 1 -1.836970e-16 5817.9316 1907.9619)" class="st0 st1">02.04</text>
<text transform="matrix(-1.836970e-16 -1 1 -1.836970e-16 5978.8721 1907.9619)" class="st0 st1">03.04</text>
<text transform="matrix(-1.836970e-16 -1 1 -1.836970e-16 6139.8125 1907.9619)" class="st0 st1">04.04</text>
<text transform="matrix(-1.836970e-16 -1 1 -1.836970e-16 6301.7617 1907.9619)" class="st0 st1">05.04</text>
<text transform="matrix(-1.836970e-16 -1 1 -1.836970e-16 6463.4434 1907.9619)" class="st0 st1">06.04</text>
<text transform="matrix(-1.836970e-16 -1 1 -1.836970e-16 6624.0166 1907.9619)" class="st0 st1">07.04</text>
<text transform="matrix(-1.836970e-16 -1 1 -1.836970e-16 6782.9434 1907.9619)" class="st0 st1">08.04</text>
<text transform="matrix(-1.836970e-16 -1 1 -1.836970e-16 6951.8711 1907.9619)" class="st0 st1">09.04</text>
<text transform="matrix(-1.836970e-16 -1 1 -1.836970e-16 7110.7969 1907.9619)" class="st0 st1">10.04</text>
<text transform="matrix(-1.836970e-16 -1 1 -1.836970e-16 7274.7598 1907.9619)" class="st0 st1">11.04</text>
<text transform="matrix(-1.836970e-16 -1 1 -1.836970e-16 7433.6865 1907.9619)" class="st0 st1">12.04</text>
<text transform="matrix(-1.836970e-16 -1 1 -1.836970e-16 7596.1377 1907.9619)" class="st0 st1">13.04</text>
<text transform="matrix(-1.836970e-16 -1 1 -1.836970e-16 7758.5889 1907.9619)" class="st0 st1">14.04</text>
<text transform="matrix(-1.836970e-16 -1 1 -1.836970e-16 7919.5303 1907.9619)" class="st0 st1">15.04</text>
<text transform="matrix(-1.836970e-16 -1 1 -1.836970e-16 8081.9814 1907.9619)" class="st0 st1">16.04</text>
<text transform="matrix(-1.836970e-16 -1 1 -1.836970e-16 8250.9092 1907.9619)" class="st0 st1">17.04</text>
<text transform="matrix(-1.836970e-16 -1 1 -1.836970e-16 8412.3535 1907.9619)" class="st0 st1">18.04</text>
<text transform="matrix(-1.836970e-16 -1 1 -1.836970e-16 8573.2949 1907.9619)" class="st0 st1">19.04</text>
<text transform="matrix(-1.836970e-16 -1 1 -1.836970e-16 8742.2207 1902.5781)" class="st0 st1">20.04</text>
<text transform="matrix(-1.836970e-16 -1 1 -1.836970e-16 8893.666 1902.5781)" class="st0 st1">21.04</text>
<text transform="matrix(-1.836970e-16 -1 1 -1.836970e-16 9055.6133 1902.5781)" class="st0 st1">22.04</text>
<text transform="matrix(-1.836970e-16 -1 1 -1.836970e-16 9226.5547 1902.5781)" class="st0 st1">23.04</text>
<text transform="matrix(-1.836970e-16 -1 1 -1.836970e-16 9387.4961 1902.5781)" class="st0 st1">24.04</text>
<text transform="matrix(-1.836970e-16 -1 1 -1.836970e-16 9549.4434 1902.5781)" class="st0 st1">25.04</text>
<text transform="matrix(-1.836970e-16 -1 1 -1.836970e-16 9701.127 1902.5781)" class="st0 st1">26.04</text>
<text transform="matrix(-1.836970e-16 -1 1 -1.836970e-16 9871.6992 1902.5781)" class="st0 st1">27.04</text>
<text transform="matrix(-1.836970e-16 -1 1 -1.836970e-16 10033.1445 1902.5781)" class="st0 st1">28.04</text>
<text transform="matrix(-1.836970e-16 -1 1 -1.836970e-16 10192.0703 1902.5781)" class="st0 st1">29.04</text>
<text transform="matrix(-1.836970e-16 -1 1 -1.836970e-16 10360.998 1902.5781)" class="st0 st1">30.04</text>
<text transform="matrix(-1.836970e-16 -1 1 -1.836970e-16 10524.959 1902.5781)" class="st0 st1">01.05</text>
<text transform="matrix(-1.836970e-16 -1 1 -1.836970e-16 10683.8867 1902.5781)" class="st0 st1">02.05</text>
<text transform="matrix(-1.836970e-16 -1 1 -1.836970e-16 10846.3379 1902.5781)" class="st0 st1">03.05</text>
<text transform="matrix(-1.836970e-16 -1 1 -1.836970e-16 11008.7891 1902.5781)" class="st0 st1">04.05</text>
<text transform="matrix(-1.836970e-16 -1 1 -1.836970e-16 11169.7305 1902.5781)" class="st0 st1">05.05</text>
<text transform="matrix(-1.836970e-16 -1 1 -1.836970e-16 11332.1816 1902.5781)" class="st0 st1">06.05</text>
<text transform="matrix(-1.836970e-16 -1 1 -1.836970e-16 11501.1094 1902.5781)" class="st0 st1">07.05</text>
<text transform="matrix(-1.836970e-16 -1 1 -1.836970e-16 11652.5527 1902.5781)" class="st0 st1">08.05</text>
<text transform="matrix(-1.836970e-16 -1 1 -1.836970e-16 11813.4941 1902.5781)" class="st0 st1">09.05</text>
<text transform="matrix(-1.836970e-16 -1 1 -1.836970e-16 456.5054 1903.585)" class="st0 st1">29.02</text>
</svg>
