<?xml version="1.0" encoding="utf-8"?>
<!-- Generator: Adobe Illustrator 23.0.3, SVG Export Plug-In . SVG Version: 6.00 Build 0)  -->
<svg version="1.1" id="container" xmlns="http://www.w3.org/2000/svg" xmlns:xlink="http://www.w3.org/1999/xlink" x="0px" y="0px"
	 viewBox="0 0 8192 3583.4" style="enable-background:new 0 0 8192 3583.4;" xml:space="preserve">
<style type="text/css">
	.st0{opacity:0.3;fill:#8C8B8C;}
	.st1{font-family:'Helvetica';}
	.st2{font-size:54.663px;}
</style>
<rect x="235.5" y="1573.2" class="st0" width="215.8" height="2010.2"/>
<rect x="1013.3" y="1573.2" class="st0" width="215.8" height="2010.2"/>
<rect x="1787.3" y="1573.2" class="st0" width="218.4" height="2010.2"/>
<rect x="2564" y="1573.2" class="st0" width="218.6" height="2010.2"/>
<rect x="3341.7" y="1573.2" class="st0" width="216.6" height="2010.2"/>
<rect x="4117.2" y="1573.2" class="st0" width="218.4" height="2010.2"/>
<rect x="4893" y="1573.2" class="st0" width="218.6" height="2010.2"/>
<rect x="5670.7" y="1573.2" class="st0" width="217.4" height="2010.2"/>
<rect x="6446.2" y="1573.2" class="st0" width="218.4" height="2010.2"/>
<rect x="7223.3" y="1573.2" class="st0" width="217.3" height="2010.2"/>
<rect x="7999.7" y="1573.2" class="st0" width="106.3" height="2010.2"/>
<g transform="translate(0,0)">
</g>
<text transform="matrix(-1.836970e-16 -1 1 -1.836970e-16 87.9058 1737.5371)" class="st1 st2">27.02</text>
<text transform="matrix(-1.836970e-16 -1 1 -1.836970e-16 203.3311 1737.5371)" class="st1 st2">28.02</text>
<text transform="matrix(-1.836970e-16 -1 1 -1.836970e-16 532.5503 1737.5381)" class="st1 st2">02.03</text>
<text transform="matrix(-1.836970e-16 -1 1 -1.836970e-16 647.9756 1737.5381)" class="st1 st2">03.03</text>
<text transform="matrix(-1.836970e-16 -1 1 -1.836970e-16 758.9766 1737.5381)" class="st1 st2">04.03</text>
<text transform="matrix(-1.836970e-16 -1 1 -1.836970e-16 863.145 1737.5381)" class="st1 st2">05.03</text>
<text transform="matrix(-1.836970e-16 -1 1 -1.836970e-16 973.1138 1737.5381)" class="st1 st2">06.03</text>
<text transform="matrix(-1.836970e-16 -1 1 -1.836970e-16 1090.9473 1736.8496)" class="st1 st2">07.03</text>
<text transform="matrix(-1.836970e-16 -1 1 -1.836970e-16 1199.541 1736.8496)" class="st1 st2">08.03</text>
<text transform="matrix(-1.836970e-16 -1 1 -1.836970e-16 1309.8535 1736.8496)" class="st1 st2">09.03</text>
<text transform="matrix(-1.836970e-16 -1 1 -1.836970e-16 1419.8223 1736.8496)" class="st1 st2">10.03</text>
<text transform="matrix(-1.836970e-16 -1 1 -1.836970e-16 1535.2485 1736.8496)" class="st1 st2">11.03</text>
<text transform="matrix(-1.836970e-16 -1 1 -1.836970e-16 1638.7285 1736.8496)" class="st1 st2">12.03</text>
<text transform="matrix(-1.836970e-16 -1 1 -1.836970e-16 1756.2183 1736.8496)" class="st1 st2">13.03</text>
<text transform="matrix(-1.836970e-16 -1 1 -1.836970e-16 1866.187 1736.8496)" class="st1 st2">14.03</text>
<text transform="matrix(-1.836970e-16 -1 1 -1.836970e-16 1976.1562 1736.8496)" class="st1 st2">15.03</text>
<text transform="matrix(-1.836970e-16 -1 1 -1.836970e-16 2086.8125 1736.8496)" class="st1 st2">16.03</text>
<text transform="matrix(-1.836970e-16 -1 1 -1.836970e-16 2197.2891 1736.8496)" class="st1 st2">17.03</text>
<text transform="matrix(-1.836970e-16 -1 1 -1.836970e-16 2307.0059 1736.8496)" class="st1 st2">18.03</text>
<text transform="matrix(-1.836970e-16 -1 1 -1.836970e-16 2422.4316 1736.8496)" class="st1 st2">19.03</text>
<text transform="matrix(-1.836970e-16 -1 1 -1.836970e-16 2531.0244 1736.8496)" class="st1 st2">20.03</text>
<text transform="matrix(-1.836970e-16 -1 1 -1.836970e-16 2639.6172 1736.8496)" class="st1 st2">21.03</text>
<text transform="matrix(-1.836970e-16 -1 1 -1.836970e-16 2751.6504 1736.8496)" class="st1 st2">22.03</text>
<text transform="matrix(-1.836970e-16 -1 1 -1.836970e-16 2860.2432 1736.8496)" class="st1 st2">23.03</text>
<text transform="matrix(-1.836970e-16 -1 1 -1.836970e-16 2978.0771 1736.8496)" class="st1 st2">24.03</text>
<text transform="matrix(-1.836970e-16 -1 1 -1.836970e-16 3089.0781 1736.8496)" class="st1 st2">25.03</text>
<text transform="matrix(-1.836970e-16 -1 1 -1.836970e-16 3199.0469 1736.8496)" class="st1 st2">26.03</text>
<text transform="matrix(-1.836970e-16 -1 1 -1.836970e-16 3310.0479 1736.8496)" class="st1 st2">27.03</text>
<text transform="matrix(-1.836970e-16 -1 1 -1.836970e-16 3418.6406 1736.8496)" class="st1 st2">28.03</text>
<text transform="matrix(-1.836970e-16 -1 1 -1.836970e-16 3528.9541 1740.5283)" class="st1 st2">29.03</text>
<text transform="matrix(-1.836970e-16 -1 1 -1.836970e-16 3638.9229 1740.5283)" class="st1 st2">30.03</text>
<text transform="matrix(-1.836970e-16 -1 1 -1.836970e-16 3747.5156 1740.5283)" class="st1 st2">31.03</text>
<text transform="matrix(-1.836970e-16 -1 1 -1.836970e-16 3850.9951 1740.5283)" class="st1 st2">01.04</text>
<text transform="matrix(-1.836970e-16 -1 1 -1.836970e-16 3975.3184 1740.5283)" class="st1 st2">02.04</text>
<text transform="matrix(-1.836970e-16 -1 1 -1.836970e-16 4085.2871 1740.5283)" class="st1 st2">03.04</text>
<text transform="matrix(-1.836970e-16 -1 1 -1.836970e-16 4195.2559 1740.5283)" class="st1 st2">04.04</text>
<text transform="matrix(-1.836970e-16 -1 1 -1.836970e-16 4305.9141 1740.5283)" class="st1 st2">05.04</text>
<text transform="matrix(-1.836970e-16 -1 1 -1.836970e-16 4416.3887 1740.5283)" class="st1 st2">06.04</text>
<text transform="matrix(-1.836970e-16 -1 1 -1.836970e-16 4526.1064 1740.5283)" class="st1 st2">07.04</text>
<text transform="matrix(-1.836970e-16 -1 1 -1.836970e-16 4634.6992 1740.5283)" class="st1 st2">08.04</text>
<text transform="matrix(-1.836970e-16 -1 1 -1.836970e-16 4750.125 1740.5283)" class="st1 st2">09.04</text>
<text transform="matrix(-1.836970e-16 -1 1 -1.836970e-16 4858.7168 1740.5283)" class="st1 st2">10.04</text>
<text transform="matrix(-1.836970e-16 -1 1 -1.836970e-16 4970.751 1740.5283)" class="st1 st2">11.04</text>
<text transform="matrix(-1.836970e-16 -1 1 -1.836970e-16 5079.3438 1740.5283)" class="st1 st2">12.04</text>
<text transform="matrix(-1.836970e-16 -1 1 -1.836970e-16 5190.3447 1740.5283)" class="st1 st2">13.04</text>
<text transform="matrix(-1.836970e-16 -1 1 -1.836970e-16 5301.3457 1740.5283)" class="st1 st2">14.04</text>
<text transform="matrix(-1.836970e-16 -1 1 -1.836970e-16 5411.3145 1740.5283)" class="st1 st2">15.04</text>
<text transform="matrix(-1.836970e-16 -1 1 -1.836970e-16 5522.3154 1740.5283)" class="st1 st2">16.04</text>
<text transform="matrix(-1.836970e-16 -1 1 -1.836970e-16 5637.7422 1740.5283)" class="st1 st2">17.04</text>
<text transform="matrix(-1.836970e-16 -1 1 -1.836970e-16 5748.0547 1740.5283)" class="st1 st2">18.04</text>
<text transform="matrix(-1.836970e-16 -1 1 -1.836970e-16 5858.0234 1740.5283)" class="st1 st2">19.04</text>
<text transform="matrix(-1.836970e-16 -1 1 -1.836970e-16 5973.4492 1736.8496)" class="st1 st2">20.04</text>
<text transform="matrix(-1.836970e-16 -1 1 -1.836970e-16 6076.9297 1736.8496)" class="st1 st2">21.04</text>
<text transform="matrix(-1.836970e-16 -1 1 -1.836970e-16 6187.5859 1736.8496)" class="st1 st2">22.04</text>
<text transform="matrix(-1.836970e-16 -1 1 -1.836970e-16 6304.3877 1736.8496)" class="st1 st2">23.04</text>
<text transform="matrix(-1.836970e-16 -1 1 -1.836970e-16 6414.3574 1736.8496)" class="st1 st2">24.04</text>
<text transform="matrix(-1.836970e-16 -1 1 -1.836970e-16 6525.0137 1736.8496)" class="st1 st2">25.04</text>
<text transform="matrix(-1.836970e-16 -1 1 -1.836970e-16 6628.6572 1736.8496)" class="st1 st2">26.04</text>
<text transform="matrix(-1.836970e-16 -1 1 -1.836970e-16 6745.207 1736.8496)" class="st1 st2">27.04</text>
<text transform="matrix(-1.836970e-16 -1 1 -1.836970e-16 6855.5205 1736.8496)" class="st1 st2">28.04</text>
<text transform="matrix(-1.836970e-16 -1 1 -1.836970e-16 6964.1123 1736.8496)" class="st1 st2">29.04</text>
<text transform="matrix(-1.836970e-16 -1 1 -1.836970e-16 7079.5391 1736.8496)" class="st1 st2">30.04</text>
<text transform="matrix(-1.836970e-16 -1 1 -1.836970e-16 7191.5703 1736.8496)" class="st1 st2">01.05</text>
<text transform="matrix(-1.836970e-16 -1 1 -1.836970e-16 7300.1641 1736.8496)" class="st1 st2">02.05</text>
<text transform="matrix(-1.836970e-16 -1 1 -1.836970e-16 7411.165 1736.8496)" class="st1 st2">03.05</text>
<text transform="matrix(-1.836970e-16 -1 1 -1.836970e-16 7522.166 1736.8496)" class="st1 st2">04.05</text>
<text transform="matrix(-1.836970e-16 -1 1 -1.836970e-16 7632.1348 1736.8496)" class="st1 st2">05.05</text>
<text transform="matrix(-1.836970e-16 -1 1 -1.836970e-16 7743.1367 1736.8496)" class="st1 st2">06.05</text>
<text transform="matrix(-1.836970e-16 -1 1 -1.836970e-16 7858.5625 1736.8496)" class="st1 st2">07.05</text>
<text transform="matrix(-1.836970e-16 -1 1 -1.836970e-16 7962.041 1736.8496)" class="st1 st2">08.05</text>
<text transform="matrix(-1.836970e-16 -1 1 -1.836970e-16 8072.0107 1736.8496)" class="st1 st2">09.05</text>
<text transform="matrix(-1.836970e-16 -1 1 -1.836970e-16 427.3501 1737.5381)" class="st1 st2">01.03</text>
<text transform="matrix(-1.836970e-16 -1 1 -1.836970e-16 311.9243 1737.5371)" class="st1 st2">29.02</text>
</svg>
