<?xml version="1.0" encoding="utf-8"?>
<!-- Generator: Adobe Illustrator 24.1.0, SVG Export Plug-In . SVG Version: 6.00 Build 0)  -->
<svg version="1.1" id="container" xmlns="http://www.w3.org/2000/svg" xmlns:xlink="http://www.w3.org/1999/xlink" x="0px" y="0px"
	 viewBox="0 0 1922.3 36.6" style="enable-background:new 0 0 1922.3 36.6;" xml:space="preserve">
<style type="text/css">
	.st0{fill:none;}
	.st1{font-family:'Helvetica';}
	.st2{font-size:12px;}
	.st3{font-family:'Helvetica-Bold';}
</style>
<rect x="9.8" y="-27.8" class="st0" width="11.8" height="55.5"/>
<text transform="matrix(4.489659e-11 -1 1 4.489659e-11 18.2229 27.75)" class="st1 st2">27.2</text>
<rect x="33.8" y="-27.8" class="st0" width="11.8" height="55.5"/>
<text transform="matrix(4.489659e-11 -1 1 4.489659e-11 40.2229 27.75)" class="st1 st2">28.2</text>
<rect x="57.8" y="-27.8" class="st0" width="11.8" height="55.5"/>
<text transform="matrix(4.489659e-11 -1 1 4.489659e-11 64.2229 27.75)" class="st3 st2">29.2</text>
<rect x="81.8" y="-27.8" class="st0" width="11.8" height="55.5"/>
<text transform="matrix(4.489659e-11 -1 1 4.489659e-11 88.2229 27.75)" class="st3 st2">1.3</text>
<rect x="105.8" y="-27.8" class="st0" width="11.8" height="55.5"/>
<text transform="matrix(4.489659e-11 -1 1 4.489659e-11 112.2229 27.75)" class="st1 st2">2.3</text>
<rect x="129.8" y="-27.8" class="st0" width="11.8" height="55.5"/>
<text transform="matrix(4.489659e-11 -1 1 4.489659e-11 136.2229 27.75)" class="st1 st2">3.3</text>
<rect x="153.8" y="-27.8" class="st0" width="11.8" height="55.5"/>
<text transform="matrix(4.489659e-11 -1 1 4.489659e-11 160.2229 27.75)" class="st1 st2">4.3</text>
<rect x="177.8" y="-27.8" class="st0" width="11.8" height="55.5"/>
<text transform="matrix(4.489659e-11 -1 1 4.489659e-11 184.2229 27.75)" class="st1 st2">5.3</text>
<rect x="201.8" y="-27.8" class="st0" width="11.8" height="55.5"/>
<text transform="matrix(4.489659e-11 -1 1 4.489659e-11 208.2229 27.75)" class="st1 st2">6.3</text>
<rect x="225.8" y="-27.8" class="st0" width="11.8" height="55.5"/>
<text transform="matrix(4.489659e-11 -1 1 4.489659e-11 232.2227 27.75)" class="st3 st2">7.3</text>
<rect x="249.8" y="-27.8" class="st0" width="11.8" height="55.5"/>
<text transform="matrix(4.489659e-11 -1 1 4.489659e-11 256.2228 27.75)" class="st3 st2">8.3</text>
<rect x="273.8" y="-27.8" class="st0" width="11.8" height="55.5"/>
<text transform="matrix(4.489659e-11 -1 1 4.489659e-11 280.2228 27.75)" class="st1 st2">9.3</text>
<rect x="297.8" y="-27.8" class="st0" width="11.8" height="55.5"/>
<text transform="matrix(4.489659e-11 -1 1 4.489659e-11 304.2228 27.75)" class="st1 st2">10.3</text>
<rect x="321.8" y="-27.8" class="st0" width="11.8" height="55.5"/>
<text transform="matrix(4.489659e-11 -1 1 4.489659e-11 328.2229 27.75)" class="st1 st2">11.3</text>
<rect x="345.8" y="-27.8" class="st0" width="11.8" height="55.5"/>
<text transform="matrix(4.489659e-11 -1 1 4.489659e-11 352.2229 27.75)" class="st1 st2">12.3</text>
<rect x="369.8" y="-27.8" class="st0" width="11.8" height="55.5"/>
<text transform="matrix(4.489659e-11 -1 1 4.489659e-11 376.2229 27.75)" class="st1 st2">13.3</text>
<rect x="393.8" y="-27.8" class="st0" width="11.8" height="55.5"/>
<text transform="matrix(4.489659e-11 -1 1 4.489659e-11 400.2229 27.75)" class="st3 st2">14.3</text>
<rect x="417.8" y="-27.8" class="st0" width="11.8" height="55.5"/>
<text transform="matrix(4.489659e-11 -1 1 4.489659e-11 424.2229 27.75)" class="st3 st2">15.3</text>
<rect x="441.8" y="-27.8" class="st0" width="11.8" height="55.5"/>
<text transform="matrix(4.489659e-11 -1 1 4.489659e-11 448.2229 27.75)" class="st1 st2">16.3</text>
<rect x="465.8" y="-27.8" class="st0" width="11.8" height="55.5"/>
<text transform="matrix(4.489659e-11 -1 1 4.489659e-11 472.2229 27.75)" class="st1 st2">17.3</text>
<rect x="489.8" y="-27.8" class="st0" width="11.8" height="55.5"/>
<text transform="matrix(4.489659e-11 -1 1 4.489659e-11 496.2229 27.75)" class="st1 st2">18.3</text>
<rect x="513.8" y="-27.8" class="st0" width="11.8" height="55.5"/>
<text transform="matrix(4.489659e-11 -1 1 4.489659e-11 520.2228 27.75)" class="st1 st2">19.3</text>
<rect x="537.8" y="-27.8" class="st0" width="11.8" height="55.5"/>
<text transform="matrix(4.489659e-11 -1 1 4.489659e-11 544.2228 27.75)" class="st1 st2">20.3</text>
<rect x="561.8" y="-27.8" class="st0" width="11.8" height="55.5"/>
<text transform="matrix(4.489659e-11 -1 1 4.489659e-11 568.2228 27.75)" class="st3 st2">21.3</text>
<rect x="585.8" y="-27.8" class="st0" width="11.8" height="55.5"/>
<text transform="matrix(4.489659e-11 -1 1 4.489659e-11 592.2228 27.75)" class="st3 st2">22.3</text>
<rect x="609.8" y="-27.8" class="st0" width="11.8" height="55.5"/>
<text transform="matrix(4.489659e-11 -1 1 4.489659e-11 616.2228 27.75)" class="st1 st2">23.3</text>
<rect x="633.8" y="-27.8" class="st0" width="11.8" height="55.5"/>
<text transform="matrix(4.489659e-11 -1 1 4.489659e-11 640.2228 27.75)" class="st1 st2">24.3</text>
<rect x="657.8" y="-27.8" class="st0" width="11.8" height="55.5"/>
<text transform="matrix(4.489659e-11 -1 1 4.489659e-11 664.2228 27.75)" class="st1 st2">25.3</text>
<rect x="681.8" y="-27.8" class="st0" width="11.8" height="55.5"/>
<text transform="matrix(4.489659e-11 -1 1 4.489659e-11 688.2228 27.75)" class="st1 st2">26.3</text>
<rect x="705.8" y="-27.8" class="st0" width="11.8" height="55.5"/>
<text transform="matrix(4.489659e-11 -1 1 4.489659e-11 712.2228 27.75)" class="st1 st2">27.3</text>
<rect x="729.8" y="-27.8" class="st0" width="11.8" height="55.5"/>
<text transform="matrix(4.489659e-11 -1 1 4.489659e-11 736.2228 27.75)" class="st3 st2">28.3</text>
<rect x="753.8" y="-27.8" class="st0" width="11.8" height="55.5"/>
<text transform="matrix(4.489659e-11 -1 1 4.489659e-11 760.2229 27.75)" class="st3 st2">29.3</text>
<rect x="777.8" y="-27.8" class="st0" width="11.8" height="55.5"/>
<text transform="matrix(4.489659e-11 -1 1 4.489659e-11 784.2229 27.75)" class="st1 st2">30.3</text>
<rect x="801.8" y="-27.8" class="st0" width="11.8" height="55.5"/>
<text transform="matrix(4.489659e-11 -1 1 4.489659e-11 808.2229 27.75)" class="st1 st2">31.3</text>
<rect x="825.8" y="-27.8" class="st0" width="11.8" height="55.5"/>
<text transform="matrix(4.489659e-11 -1 1 4.489659e-11 832.2229 27.75)" class="st1 st2">1.4</text>
<rect x="849.8" y="-27.8" class="st0" width="11.8" height="55.5"/>
<text transform="matrix(4.489659e-11 -1 1 4.489659e-11 856.2229 27.75)" class="st1 st2">2.4</text>
<rect x="873.8" y="-27.8" class="st0" width="11.8" height="55.5"/>
<text transform="matrix(4.489659e-11 -1 1 4.489659e-11 880.2229 27.75)" class="st1 st2">3.4</text>
<rect x="897.8" y="-27.8" class="st0" width="11.8" height="55.5"/>
<text transform="matrix(4.489659e-11 -1 1 4.489659e-11 904.2229 27.75)" class="st3 st2">4.4</text>
<rect x="921.8" y="-27.8" class="st0" width="11.8" height="55.5"/>
<text transform="matrix(4.489659e-11 -1 1 4.489659e-11 928.2229 27.75)" class="st3 st2">5.4</text>
<rect x="945.8" y="-27.8" class="st0" width="11.8" height="55.5"/>
<text transform="matrix(4.489659e-11 -1 1 4.489659e-11 952.2229 27.75)" class="st1 st2">6.4</text>
<rect x="969.8" y="-27.8" class="st0" width="11.8" height="55.5"/>
<text transform="matrix(4.489659e-11 -1 1 4.489659e-11 976.2229 27.75)" class="st1 st2">7.4</text>
<rect x="993.8" y="-27.8" class="st0" width="11.8" height="55.5"/>
<text transform="matrix(4.489659e-11 -1 1 4.489659e-11 1000.2229 27.75)" class="st1 st2">8.4</text>
<rect x="1017.8" y="-27.8" class="st0" width="11.8" height="55.5"/>
<text transform="matrix(4.489659e-11 -1 1 4.489659e-11 1024.2229 27.75)" class="st1 st2">9.4</text>
<rect x="1041.8" y="-27.8" class="st0" width="11.8" height="55.5"/>
<text transform="matrix(4.489659e-11 -1 1 4.489659e-11 1048.2229 27.75)" class="st1 st2">10.4</text>
<rect x="1065.8" y="-27.8" class="st0" width="11.8" height="55.5"/>
<text transform="matrix(4.489659e-11 -1 1 4.489659e-11 1072.2229 27.75)" class="st3 st2">11.4</text>
<rect x="1089.8" y="-27.8" class="st0" width="11.8" height="55.5"/>
<text transform="matrix(4.489659e-11 -1 1 4.489659e-11 1096.2229 27.75)" class="st3 st2">12.4</text>
<rect x="1113.8" y="-27.8" class="st0" width="11.8" height="55.5"/>
<text transform="matrix(4.489659e-11 -1 1 4.489659e-11 1120.2229 27.75)" class="st1 st2">13.4</text>
<rect x="1137.8" y="-27.8" class="st0" width="11.8" height="55.5"/>
<text transform="matrix(4.489659e-11 -1 1 4.489659e-11 1144.2229 27.75)" class="st1 st2">14.4</text>
<rect x="1161.8" y="-27.8" class="st0" width="11.8" height="55.5"/>
<text transform="matrix(4.489659e-11 -1 1 4.489659e-11 1168.2229 27.75)" class="st1 st2">15.4</text>
<rect x="1185.8" y="-27.8" class="st0" width="11.8" height="55.5"/>
<text transform="matrix(4.489659e-11 -1 1 4.489659e-11 1192.2229 27.75)" class="st1 st2">16.4</text>
<rect x="1209.8" y="-27.8" class="st0" width="11.8" height="55.5"/>
<text transform="matrix(4.489659e-11 -1 1 4.489659e-11 1216.2229 27.75)" class="st1 st2">17.4</text>
<rect x="1233.8" y="-27.8" class="st0" width="11.8" height="55.5"/>
<text transform="matrix(4.489659e-11 -1 1 4.489659e-11 1240.2229 27.75)" class="st3 st2">18.4</text>
<rect x="1257.8" y="-27.8" class="st0" width="11.8" height="55.5"/>
<text transform="matrix(4.489659e-11 -1 1 4.489659e-11 1264.2229 27.75)" class="st3 st2">19.4</text>
<rect x="1281.8" y="-27.8" class="st0" width="11.8" height="55.5"/>
<text transform="matrix(4.489659e-11 -1 1 4.489659e-11 1288.2229 27.75)" class="st1 st2">20.4</text>
<rect x="1305.8" y="-27.8" class="st0" width="11.8" height="55.5"/>
<text transform="matrix(4.489659e-11 -1 1 4.489659e-11 1312.2229 27.75)" class="st1 st2">21.4</text>
<rect x="1329.8" y="-27.8" class="st0" width="11.8" height="55.5"/>
<text transform="matrix(4.489659e-11 -1 1 4.489659e-11 1336.2229 27.75)" class="st1 st2">22.4</text>
<rect x="1353.8" y="-27.8" class="st0" width="11.8" height="55.5"/>
<text transform="matrix(4.489659e-11 -1 1 4.489659e-11 1360.2229 27.75)" class="st1 st2">23.4</text>
<rect x="1377.8" y="-27.8" class="st0" width="11.8" height="55.5"/>
<text transform="matrix(4.489659e-11 -1 1 4.489659e-11 1384.2229 27.75)" class="st1 st2">24.4</text>
<rect x="1401.8" y="-27.8" class="st0" width="11.8" height="55.5"/>
<text transform="matrix(4.489659e-11 -1 1 4.489659e-11 1408.2229 27.75)" class="st3 st2">25.4</text>
<rect x="1425.8" y="-27.8" class="st0" width="11.8" height="55.5"/>
<text transform="matrix(4.489659e-11 -1 1 4.489659e-11 1432.2229 27.75)" class="st3 st2">26.4</text>
<rect x="1447.8" y="-27.8" class="st0" width="11.8" height="55.5"/>
<text transform="matrix(4.489659e-11 -1 1 4.489659e-11 1458.2229 27.75)" class="st1 st2">27.4</text>
<rect x="1473.8" y="-27.8" class="st0" width="11.8" height="55.5"/>
<text transform="matrix(4.489659e-11 -1 1 4.489659e-11 1480.2229 27.75)" class="st1 st2">28.4</text>
<rect x="1497.8" y="-27.8" class="st0" width="11.8" height="55.5"/>
<text transform="matrix(4.489659e-11 -1 1 4.489659e-11 1504.2229 27.75)" class="st1 st2">29.4</text>
<rect x="1521.8" y="-27.8" class="st0" width="11.8" height="55.5"/>
<text transform="matrix(4.489659e-11 -1 1 4.489659e-11 1528.2229 27.75)" class="st1 st2">30.4</text>
<rect x="1545.8" y="-27.8" class="st0" width="11.8" height="55.5"/>
<text transform="matrix(4.489659e-11 -1 1 4.489659e-11 1552.2229 28.75)" class="st1 st2">1.5</text>
<rect x="1569.8" y="-27.8" class="st0" width="11.8" height="55.5"/>
<text transform="matrix(4.489659e-11 -1 1 4.489659e-11 1576.2229 27.75)" class="st3 st2">2.5</text>
<rect x="1593.8" y="-27.8" class="st0" width="11.8" height="55.5"/>
<text transform="matrix(4.489659e-11 -1 1 4.489659e-11 1600.2229 27.75)" class="st3 st2">3.5</text>
<text transform="matrix(4.489659e-11 -1 1 4.489659e-11 1625.0548 27.75)" class="st1 st2">4.5</text>
<text transform="matrix(4.489659e-11 -1 1 4.489659e-11 1649.8868 27.75)" class="st1 st2">5.5</text>
<text transform="matrix(4.489659e-11 -1 1 4.489659e-11 1672.7003 27.75)" class="st1 st2">6.5</text>
<text transform="matrix(4.489659e-11 -1 1 4.489659e-11 1696.0439 27.75)" class="st1 st2">7.5</text>
<text transform="matrix(4.489659e-11 -1 1 4.489659e-11 1720.5078 27.75)" class="st1 st2">8.5</text>
<text transform="matrix(4.489659e-11 -1 1 4.489659e-11 1744.5582 27.75)" class="st3 st2">9.5</text>
<text transform="matrix(4.489659e-11 -1 1 4.489659e-11 1767.4354 27.75)" class="st3 st2">10.5</text>
<text transform="matrix(4.489659e-11 -1 1 4.489659e-11 1792.3657 27.75)" class="st1 st2">11.5</text>
<text transform="matrix(4.489659e-11 -1 1 4.489659e-11 1816.6997 27.75)" class="st1 st2">12.5</text>
<text transform="matrix(4.489659e-11 -1 1 4.489659e-11 1840.6997 27.75)" class="st1 st2">13.5</text>
<text transform="matrix(4.489659e-11 -1 1 4.489659e-11 1864.457 27.75)" class="st1 st2">14.5</text>
<text transform="matrix(4.489659e-11 -1 1 4.489659e-11 1888.7002 27.75)" class="st1 st2">15.5</text>
<text transform="matrix(4.489659e-11 -1 1 4.489659e-11 1911.5774 27.75)" class="st3 st2">16.5</text>
</svg>
