<?xml version="1.0" encoding="utf-8"?>
<!-- Generator: Adobe Illustrator 22.1.0, SVG Export Plug-In . SVG Version: 6.00 Build 0)  -->
<svg version="1.1" id="container" xmlns="http://www.w3.org/2000/svg" xmlns:xlink="http://www.w3.org/1999/xlink" x="0px" y="0px"
	 viewBox="0 0 1718.2 592.6" style="enable-background:new 0 0 1718.2 592.6;" xml:space="preserve">
<style type="text/css">
	.st0{fill:none;}
	.st1{fill:#FFFFFF;}
	.st2{font-family:'MyriadPro-Regular';}
	.st3{font-size:11.1px;}
	.st4{font-size:14.8001px;}
	.st5{fill:none;stroke:#FFFFFF;stroke-miterlimit:10;}
	.st6{fill:none;stroke:#FFFFFF;stroke-width:0.25;stroke-miterlimit:10;}
</style>
<g transform="translate(0,0)">
	<rect x="32.7" y="38" class="st0" width="26.8" height="10.6"/>
	<text transform="matrix(1.0058 0 0 1 32.6873 45.8603)" class="st1 st2 st3">LU</text>
	<rect x="60.5" y="38.2" class="st0" width="23.4" height="10.5"/>
	<text transform="matrix(1.0058 0 0 1 60.4495 46.0717)" class="st1 st2 st3">MA</text>
	<rect x="87.4" y="38.3" class="st0" width="23.4" height="10.5"/>
	<text transform="matrix(1.0058 0 0 1 87.4563 46.1254)" class="st1 st2 st3">ME</text>
	<rect x="114.2" y="38.3" class="st0" width="26.1" height="10.4"/>
	<text transform="matrix(1.0058 0 0 1 114.1892 46.1523)" class="st1 st2 st3">GI</text>
	<rect x="141.7" y="38.6" class="st0" width="23.4" height="10.5"/>
	<text transform="matrix(1.0058 0 0 1 141.6482 46.4121)" class="st1 st2 st3">VE</text>
	<rect x="168.4" y="38.6" class="st0" width="23.4" height="10.5"/>
	<text transform="matrix(1.0058 0 0 1 168.4329 46.4658)" class="st1 st2 st3">SA</text>
	<rect x="195.3" y="38.7" class="st0" width="26.1" height="9.7"/>
	<text transform="matrix(1.0058 0 0 1 195.2625 46.5751)" class="st1 st2 st3">DO</text>
	<rect x="5.7" y="38.1" class="st0" width="26.5" height="10.5"/>
	<text transform="matrix(1.0058 0 0 1 5.6951 46.0234)" class="st1 st2 st3">DO</text>
	<rect x="5.7" y="31.7" class="st0" width="25.8" height="25.1"/>
	<rect x="10.2" y="10.5" class="st0" width="390.8" height="15.3"/>
	<text transform="matrix(1.0058 0 0 1 10.2366 21.0249)" class="st1 st2 st4">MARZO  1-31</text>
	<rect x="6.9" y="3.9" class="st5" width="834.6" height="25.1"/>
	<rect x="28" y="31.6" class="st5" width="193.1" height="24.9"/>
	<rect x="222.1" y="38" class="st0" width="26.8" height="10.6"/>
	<text transform="matrix(1.0058 0 0 1 222.0618 45.8603)" class="st1 st2 st3">LU</text>
	<rect x="249.8" y="38.2" class="st0" width="23.4" height="10.5"/>
	<text transform="matrix(1.0058 0 0 1 249.824 46.0717)" class="st1 st2 st3">MA</text>
	<rect x="276.9" y="38.3" class="st0" width="23.4" height="10.5"/>
	<text transform="matrix(1.0058 0 0 1 276.8308 46.1254)" class="st1 st2 st3">ME</text>
	<rect x="303.6" y="38.3" class="st0" width="26.1" height="10.4"/>
	<text transform="matrix(1.0058 0 0 1 303.5647 46.1523)" class="st1 st2 st3">GI</text>
	<rect x="331" y="38.6" class="st0" width="23.4" height="10.5"/>
	<text transform="matrix(1.0058 0 0 1 331.0237 46.4121)" class="st1 st2 st3">VE</text>
	<rect x="357.8" y="38.6" class="st0" width="23.4" height="10.5"/>
	<text transform="matrix(1.0058 0 0 1 357.8079 46.4658)" class="st1 st2 st3">SA</text>
	<rect x="384.6" y="38.7" class="st0" width="26.1" height="9.7"/>
	<text transform="matrix(1.0058 0 0 1 384.6375 46.5751)" class="st1 st2 st3">DO</text>
	<rect x="222.4" y="31.6" class="st0" width="188" height="24.9"/>
	<rect x="411.4" y="38" class="st0" width="26.8" height="10.6"/>
	<text transform="matrix(1.0058 0 0 1 411.4373 45.8603)" class="st1 st2 st3">LU</text>
	<rect x="439.2" y="38.2" class="st0" width="23.4" height="10.5"/>
	<text transform="matrix(1.0058 0 0 1 439.199 46.0717)" class="st1 st2 st3">MA</text>
	<rect x="466.2" y="38.3" class="st0" width="23.4" height="10.5"/>
	<text transform="matrix(1.0058 0 0 1 466.2058 46.1254)" class="st1 st2 st3">ME</text>
	<rect x="492.9" y="38.3" class="st0" width="26.1" height="10.4"/>
	<text transform="matrix(1.0058 0 0 1 492.9402 46.1523)" class="st1 st2 st3">GI</text>
	<rect x="520.4" y="38.6" class="st0" width="23.4" height="10.5"/>
	<text transform="matrix(1.0058 0 0 1 520.4001 46.4121)" class="st1 st2 st3">VE</text>
	<rect x="547.1" y="38.6" class="st0" width="23.4" height="10.5"/>
	<text transform="matrix(1.0058 0 0 1 547.1833 46.4658)" class="st1 st2 st3">SA</text>
	<rect x="574" y="38.7" class="st0" width="26.1" height="9.7"/>
	<text transform="matrix(1.0058 0 0 1 574.0134 46.5751)" class="st1 st2 st3">DO</text>
	<rect x="411.8" y="31.6" class="st5" width="188" height="24.9"/>
	<rect x="600.8" y="38" class="st0" width="26.8" height="10.6"/>
	<text transform="matrix(1.0058 0 0 1 600.8132 45.8603)" class="st1 st2 st3">LU</text>
	<rect x="628.5" y="38.2" class="st0" width="23.4" height="10.5"/>
	<text transform="matrix(1.0058 0 0 1 628.574 46.0717)" class="st1 st2 st3">MA</text>
	<rect x="655.6" y="38.3" class="st0" width="23.4" height="10.5"/>
	<text transform="matrix(1.0058 0 0 1 655.5808 46.1254)" class="st1 st2 st3">ME</text>
	<rect x="682.3" y="38.3" class="st0" width="26.1" height="10.4"/>
	<text transform="matrix(1.0058 0 0 1 682.3142 46.1523)" class="st1 st2 st3">GI</text>
	<rect x="709.8" y="38.6" class="st0" width="23.4" height="10.5"/>
	<text transform="matrix(1.0058 0 0 1 709.7742 46.4121)" class="st1 st2 st3">VE</text>
	<rect x="736.6" y="38.6" class="st0" width="23.4" height="10.5"/>
	<text transform="matrix(1.0058 0 0 1 736.5574 46.4658)" class="st1 st2 st3">SA</text>
	<rect x="763.4" y="38.7" class="st0" width="26.1" height="9.7"/>
	<text transform="matrix(1.0058 0 0 1 763.3884 46.5751)" class="st1 st2 st3">DO</text>
	<rect x="601.2" y="31.6" class="st5" width="188" height="24.9"/>
	<rect x="790.1" y="38" class="st0" width="26.8" height="10.6"/>
	<text transform="matrix(1.0058 0 0 1 790.1873 45.8603)" class="st1 st2 st3">LU</text>
	<rect x="818" y="38.2" class="st0" width="23.4" height="10.5"/>
	<text transform="matrix(1.0058 0 0 1 817.95 46.0717)" class="st1 st2 st3">MA</text>
	<rect x="844.9" y="38.3" class="st0" width="23.4" height="10.5"/>
	<text transform="matrix(1.0058 0 0 1 844.9568 46.1254)" class="st1 st2 st3">ME</text>
	<rect x="871.6" y="38.3" class="st0" width="26.1" height="10.4"/>
	<text transform="matrix(1.0058 0 0 1 871.6912 46.1523)" class="st1 st2 st3">GI</text>
	<rect x="899.2" y="38.6" class="st0" width="23.4" height="10.5"/>
	<text transform="matrix(1.0058 0 0 1 899.1492 46.4121)" class="st1 st2 st3">VE</text>
	<rect x="925.9" y="38.6" class="st0" width="23.4" height="10.5"/>
	<text transform="matrix(1.0058 0 0 1 925.9333 46.4658)" class="st1 st2 st3">SA</text>
	<rect x="952.8" y="38.7" class="st0" width="26.1" height="9.7"/>
	<text transform="matrix(1.0058 0 0 1 952.7625 46.5751)" class="st1 st2 st3">DO</text>
	<rect x="790.5" y="31.6" class="st5" width="188" height="24.9"/>
	<rect x="979.6" y="38" class="st0" width="26.8" height="10.6"/>
	<text transform="matrix(1.0058 0 0 1 979.5632 45.8603)" class="st1 st2 st3">LU</text>
	<rect x="1007.3" y="38.2" class="st0" width="23.4" height="10.5"/>
	<text transform="matrix(1.0058 0 0 1 1007.324 46.0717)" class="st1 st2 st3">MA</text>
	<rect x="1034.4" y="38.3" class="st0" width="23.4" height="10.5"/>
	<text transform="matrix(1.0058 0 0 1 1034.3308 46.1254)" class="st1 st2 st3">ME</text>
	<rect x="1061.1" y="38.3" class="st0" width="26.1" height="10.4"/>
	<text transform="matrix(1.0058 0 0 1 1061.0652 46.1523)" class="st1 st2 st3">GI</text>
	<rect x="1088.5" y="38.6" class="st0" width="23.4" height="10.5"/>
	<text transform="matrix(1.0058 0 0 1 1088.5232 46.4121)" class="st1 st2 st3">VE</text>
	<rect x="1115.3" y="38.6" class="st0" width="23.4" height="10.5"/>
	<text transform="matrix(1.0058 0 0 1 1115.3074 46.4658)" class="st1 st2 st3">SA</text>
	<rect x="1142.1" y="38.7" class="st0" width="26.1" height="9.7"/>
	<text transform="matrix(1.0058 0 0 1 1142.1365 46.5751)" class="st1 st2 st3">DO</text>
	<rect x="979.9" y="31.6" class="st5" width="188" height="24.9"/>
	<rect x="1168.9" y="38" class="st0" width="26.8" height="10.6"/>
	<text transform="matrix(1.0058 0 0 1 1168.9363 45.8603)" class="st1 st2 st3">LU</text>
	<rect x="1196.7" y="38.2" class="st0" width="23.4" height="10.5"/>
	<text transform="matrix(1.0058 0 0 1 1196.699 46.0717)" class="st1 st2 st3">MA</text>
	<rect x="1223.7" y="38.3" class="st0" width="23.4" height="10.5"/>
	<text transform="matrix(1.0058 0 0 1 1223.7058 46.1254)" class="st1 st2 st3">ME</text>
	<rect x="1250.4" y="38.3" class="st0" width="26.1" height="10.4"/>
	<text transform="matrix(1.0058 0 0 1 1250.4392 46.1523)" class="st1 st2 st3">GI</text>
	<rect x="1277.9" y="38.6" class="st0" width="23.4" height="10.5"/>
	<text transform="matrix(1.0058 0 0 1 1277.8982 46.4121)" class="st1 st2 st3">VE</text>
	<rect x="1304.6" y="38.6" class="st0" width="23.4" height="10.5"/>
	<text transform="matrix(1.0058 0 0 1 1304.6824 46.4658)" class="st1 st2 st3">SA</text>
	<rect x="1331.5" y="38.7" class="st0" width="26.1" height="9.7"/>
	<text transform="matrix(1.0058 0 0 1 1331.5115 46.5751)" class="st1 st2 st3">DO</text>
	<rect x="1169.3" y="31.6" class="st5" width="188" height="24.9"/>
	<rect x="1358.3" y="38" class="st0" width="26.8" height="10.6"/>
	<text transform="matrix(1.0058 0 0 1 1358.3113 45.8603)" class="st1 st2 st3">LU</text>
	<rect x="1386" y="38.2" class="st0" width="23.4" height="10.5"/>
	<text transform="matrix(1.0058 0 0 1 1386.074 46.0717)" class="st1 st2 st3">MA</text>
	<rect x="1413.1" y="38.3" class="st0" width="23.4" height="10.5"/>
	<text transform="matrix(1.0058 0 0 1 1413.0798 46.1254)" class="st1 st2 st3">ME</text>
	<rect x="1439.8" y="38.3" class="st0" width="26.1" height="10.4"/>
	<text transform="matrix(1.0058 0 0 1 1439.8152 46.1523)" class="st1 st2 st3">GI</text>
	<rect x="1467.3" y="38.6" class="st0" width="23.4" height="10.5"/>
	<text transform="matrix(1.0058 0 0 1 1467.2732 46.4121)" class="st1 st2 st3">VE</text>
	<rect x="1494.1" y="38.6" class="st0" width="23.4" height="10.5"/>
	<text transform="matrix(1.0058 0 0 1 1494.0583 46.4658)" class="st1 st2 st3">SA</text>
	<rect x="1520.9" y="38.7" class="st0" width="26.1" height="9.7"/>
	<text transform="matrix(1.0058 0 0 1 1520.8865 46.5751)" class="st1 st2 st3">DO</text>
	<rect x="1358.7" y="31.6" class="st5" width="188" height="24.9"/>
	<rect x="1547.6" y="38" class="st0" width="26.8" height="10.6"/>
	<text transform="matrix(1.0058 0 0 1 1547.6873 45.8603)" class="st1 st2 st3">LU</text>
	<rect x="1575.5" y="38.2" class="st0" width="23.4" height="10.5"/>
	<text transform="matrix(1.0058 0 0 1 1575.448 46.0717)" class="st1 st2 st3">MA</text>
	<rect x="1602.4" y="38.3" class="st0" width="23.4" height="10.5"/>
	<text transform="matrix(1.0058 0 0 1 1602.4558 46.1254)" class="st1 st2 st3">ME</text>
	<rect x="1629.1" y="38.3" class="st0" width="26.1" height="10.4"/>
	<text transform="matrix(1.0058 0 0 1 1629.1902 46.1523)" class="st1 st2 st3">GI</text>
	<rect x="1656.7" y="38.6" class="st0" width="23.4" height="10.5"/>
	<rect x="1548" y="31.6" class="st5" width="102.9" height="24.9"/>
	<rect x="222" y="37.9" class="st0" width="26.8" height="10.6"/>
	<text transform="matrix(1.0058 0 0 1 221.9856 45.7998)" class="st1 st2 st3">LU</text>
	<rect x="249.7" y="38.1" class="st0" width="23.4" height="10.5"/>
	<text transform="matrix(1.0058 0 0 1 249.7478 46.0107)" class="st1 st2 st3">MA</text>
	<rect x="276.8" y="38.2" class="st0" width="23.4" height="10.5"/>
	<text transform="matrix(1.0058 0 0 1 276.7546 46.0644)" class="st1 st2 st3">ME</text>
	<rect x="303.5" y="38.2" class="st0" width="26.1" height="10.4"/>
	<text transform="matrix(1.0058 0 0 1 303.4885 46.0913)" class="st1 st2 st3">GI</text>
	<rect x="330.9" y="38.5" class="st0" width="23.4" height="10.5"/>
	<text transform="matrix(1.0058 0 0 1 330.9475 46.3505)" class="st1 st2 st3">VE</text>
	<rect x="357.7" y="38.6" class="st0" width="23.4" height="10.5"/>
	<text transform="matrix(1.0058 0 0 1 357.7307 46.4043)" class="st1 st2 st3">SA</text>
	<rect x="384.6" y="38.7" class="st0" width="26.1" height="9.7"/>
	<text transform="matrix(1.0058 0 0 1 384.5613 46.5146)" class="st1 st2 st3">DO</text>
	<rect x="222.4" y="31.5" class="st5" width="188" height="24.9"/>
	<rect x="846.7" y="10.3" class="st0" width="159.6" height="13.4"/>
	<text transform="matrix(1.0058 0 0 1 846.7244 20.7866)" class="st1 st2 st4">APRILE  1-30</text>
	<rect x="843.4" y="4" class="st5" width="807.8" height="25.1"/>
	<rect x="33.2" y="67.1" class="st5" width="202" height="522.8"/>
	<rect x="235.2" y="67.1" class="st5" width="202" height="522.8"/>
	<rect x="437.3" y="67.1" class="st5" width="202" height="522.8"/>
	<rect x="642.2" y="67.1" class="st5" width="202" height="522.8"/>
	<rect x="844.1" y="67.1" class="st5" width="202" height="522.8"/>
	<rect x="1046" y="67.1" class="st5" width="202" height="522.8"/>
	<rect x="1247.8" y="67.1" class="st5" width="202" height="522.8"/>
	<rect x="1449.7" y="67.1" class="st5" width="202" height="522.8"/>
	<rect x="6.6" y="31.7" class="st5" width="21.4" height="24.9"/>
	<rect x="6.6" y="67" class="st5" width="26.6" height="522.8"/>
</g>
<rect x="6" y="67.5" class="st5" width="27.1" height="519.5"/>
<rect x="222.2" y="67.5" class="st5" width="189.3" height="519.5"/>
<rect x="411.7" y="67.5" class="st5" width="189.3" height="519.5"/>
<rect x="601.2" y="67.5" class="st5" width="189.3" height="519.5"/>
<rect x="790.6" y="67.5" class="st5" width="189.3" height="519.5"/>
<rect x="980.1" y="67.5" class="st5" width="189.3" height="519.5"/>
<rect x="1169.6" y="67.5" class="st5" width="189.3" height="519.5"/>
<rect x="1541.2" y="67.5" class="st6" width="143.3" height="519.5"/>
</svg>
