<?xml version="1.0" encoding="utf-8"?>
<!-- Generator: Adobe Illustrator 22.1.0, SVG Export Plug-In . SVG Version: 6.00 Build 0)  -->
<svg version="1.1" id="container" xmlns="http://www.w3.org/2000/svg" xmlns:xlink="http://www.w3.org/1999/xlink" x="0px" y="0px"
	 viewBox="0 0 2017.4 665.1" style="enable-background:new 0 0 2017.4 665.1;" xml:space="preserve">
<style type="text/css">
	.st0{fill:none;}
	.st1{fill:#FFFFFF;}
	.st2{font-family:'MyriadPro-Regular';}
	.st3{font-size:11.3281px;}
	.st4{font-size:15.1042px;}
	.st5{fill:none;stroke:#FFFFFF;stroke-miterlimit:10;}
	.st6{opacity:0.22;fill:#013503;enable-background:new    ;}
	.st7{fill:none;stroke:#FAFCFA;stroke-width:0.25;stroke-miterlimit:10;}
</style>
<g transform="translate(0,0)">
	<rect x="33.3" y="38.6" class="st0" width="27.4" height="10.8"/>
	<text transform="matrix(1.0058 0 0 1 45.1885 46.6301)" class="st1 st2 st3">LU</text>
	<rect x="61.6" y="38.8" class="st0" width="23.9" height="10.7"/>
	<text transform="matrix(1.0058 0 0 1 73.751 46.8454)" class="st1 st2 st3">MA</text>
	<rect x="89.1" y="38.9" class="st0" width="23.9" height="10.7"/>
	<text transform="matrix(1.0058 0 0 1 104.7588 46.9001)" class="st1 st2 st3">ME</text>
	<rect x="116.4" y="38.9" class="st0" width="26.6" height="10.6"/>
	<text transform="matrix(1.0058 0 0 1 137.5552 46.9279)" class="st1 st2 st3">GI</text>
	<rect x="144.5" y="39.2" class="st0" width="23.9" height="10.7"/>
	<text transform="matrix(1.0058 0 0 1 166.7275 47.1931)" class="st1 st2 st3">VE</text>
	<rect x="171.7" y="39.2" class="st0" width="23.9" height="10.7"/>
	<text transform="matrix(1.0058 0 0 1 196.3599 47.2482)" class="st1 st2 st3">SA</text>
	<rect x="199.2" y="39.3" class="st0" width="26.6" height="9.9"/>
	<text transform="matrix(1.0058 0 0 1 226.4214 47.3591)" class="st1 st2 st3">DO</text>
	<rect x="5.7" y="38.7" class="st0" width="27" height="10.7"/>
	<text transform="matrix(1.0058 0 0 1 14.1958 46.7966)" class="st1 st2 st3">DO</text>
	<rect x="5.7" y="32.2" class="st0" width="30.8" height="25.6"/>
	<rect x="10.3" y="10.5" class="st0" width="398.8" height="15.6"/>
	<text transform="matrix(1.0058 0 0 1 10.3296 21.2844)" class="st1 st2 st4">MARZO  1-31</text>
	<rect x="187.7" y="32.1" class="st5" width="60.5" height="25.4"/>
	<rect x="226.5" y="38.6" class="st0" width="27.4" height="10.8"/>
	<rect x="889.4" y="38.9" class="st0" width="26.6" height="10.6"/>
	<rect x="917.6" y="39.2" class="st0" width="23.9" height="10.7"/>
	<rect x="226.4" y="38.5" class="st0" width="27.4" height="10.8"/>
	<rect x="245.3" y="38.6" class="st0" width="27.4" height="10.8"/>
	<text transform="matrix(1.0058 0 0 1 257.2808 46.6301)" class="st1 st2 st3">LU</text>
	<rect x="273.7" y="38.8" class="st0" width="23.9" height="10.7"/>
	<text transform="matrix(1.0058 0 0 1 285.8438 46.8454)" class="st1 st2 st3">MA</text>
	<rect x="301.2" y="38.9" class="st0" width="23.9" height="10.7"/>
	<text transform="matrix(1.0058 0 0 1 316.8516 46.9001)" class="st1 st2 st3">ME</text>
	<rect x="328.5" y="38.9" class="st0" width="26.6" height="10.6"/>
	<text transform="matrix(1.0058 0 0 1 349.6475 46.9279)" class="st1 st2 st3">GI</text>
	<rect x="356.6" y="39.2" class="st0" width="23.9" height="10.7"/>
	<text transform="matrix(1.0058 0 0 1 378.8198 47.1931)" class="st1 st2 st3">VE</text>
	<rect x="383.8" y="39.2" class="st0" width="23.9" height="10.7"/>
	<text transform="matrix(1.0058 0 0 1 408.4526 47.2482)" class="st1 st2 st3">SA</text>
	<rect x="411.3" y="39.3" class="st0" width="26.6" height="9.9"/>
	<text transform="matrix(1.0058 0 0 1 438.5137 47.3591)" class="st1 st2 st3">DO</text>
	<rect x="399.8" y="32.1" class="st5" width="60.5" height="25.4"/>
	<rect x="438.6" y="38.6" class="st0" width="27.4" height="10.8"/>
	<rect x="438.5" y="38.5" class="st0" width="27.4" height="10.8"/>
	<rect x="457.4" y="38.6" class="st0" width="27.4" height="10.8"/>
	<text transform="matrix(1.0058 0 0 1 469.373 46.6301)" class="st1 st2 st3">LU</text>
	<rect x="485.8" y="38.8" class="st0" width="23.9" height="10.7"/>
	<text transform="matrix(1.0058 0 0 1 497.9365 46.8454)" class="st1 st2 st3">MA</text>
	<rect x="513.3" y="38.9" class="st0" width="23.9" height="10.7"/>
	<text transform="matrix(1.0058 0 0 1 528.9443 46.9001)" class="st1 st2 st3">ME</text>
	<rect x="540.6" y="38.9" class="st0" width="26.6" height="10.6"/>
	<text transform="matrix(1.0058 0 0 1 561.7402 46.9279)" class="st1 st2 st3">GI</text>
	<rect x="568.7" y="39.2" class="st0" width="23.9" height="10.7"/>
	<text transform="matrix(1.0058 0 0 1 590.9121 47.1931)" class="st1 st2 st3">VE</text>
	<rect x="595.9" y="39.2" class="st0" width="23.9" height="10.7"/>
	<text transform="matrix(1.0058 0 0 1 620.5449 47.2482)" class="st1 st2 st3">SA</text>
	<rect x="623.4" y="39.3" class="st0" width="26.6" height="9.9"/>
	<text transform="matrix(1.0058 0 0 1 650.6064 47.3591)" class="st1 st2 st3">DO</text>
	<rect x="615.9" y="32.1" class="st5" width="60.5" height="25.4"/>
	<rect x="650.7" y="38.6" class="st0" width="27.4" height="10.8"/>
	<rect x="650.6" y="38.5" class="st0" width="27.4" height="10.8"/>
	<rect x="669.5" y="38.6" class="st0" width="27.4" height="10.8"/>
	<text transform="matrix(1.0058 0 0 1 685.4658 46.6301)" class="st1 st2 st3">LU</text>
	<rect x="697.9" y="38.8" class="st0" width="23.9" height="10.7"/>
	<text transform="matrix(1.0058 0 0 1 714.0293 46.8454)" class="st1 st2 st3">MA</text>
	<rect x="729.4" y="38.9" class="st0" width="23.9" height="10.7"/>
	<text transform="matrix(1.0058 0 0 1 741.0371 46.9001)" class="st1 st2 st3">ME</text>
	<rect x="752.7" y="38.9" class="st0" width="26.6" height="10.6"/>
	<text transform="matrix(1.0058 0 0 1 774.833 46.9279)" class="st1 st2 st3">GI</text>
	<rect x="784.8" y="39.2" class="st0" width="23.9" height="10.7"/>
	<text transform="matrix(1.0058 0 0 1 803.0049 47.1931)" class="st1 st2 st3">VE</text>
	<rect x="812" y="39.2" class="st0" width="23.9" height="10.7"/>
	<text transform="matrix(1.0058 0 0 1 836.6377 47.2482)" class="st1 st2 st3">SA</text>
	<rect x="835.5" y="39.3" class="st0" width="26.6" height="9.9"/>
	<text transform="matrix(1.0058 0 0 1 866.6992 47.3591)" class="st1 st2 st3">DO</text>
	<rect x="828" y="32.1" class="st5" width="60.5" height="25.4"/>
	<rect x="828.3" y="32.1" class="st5" width="60.5" height="25.4"/>
	<text transform="matrix(1.0058 0 0 1 897.8984 46.6301)" class="st1 st2 st3">LU</text>
	<text transform="matrix(1.0058 0 0 1 926.4619 46.8454)" class="st1 st2 st3">MA</text>
	<rect x="941.8" y="38.9" class="st0" width="23.9" height="10.7"/>
	<text transform="matrix(1.0058 0 0 1 953.4697 46.9001)" class="st1 st2 st3">ME</text>
	<text transform="matrix(1.0058 0 0 1 987.2656 46.9279)" class="st1 st2 st3">GI</text>
	<rect x="997.2" y="39.2" class="st0" width="23.9" height="10.7"/>
	<text transform="matrix(1.0058 0 0 1 1015.4375 47.1931)" class="st1 st2 st3">VE</text>
	<rect x="1024.4" y="39.2" class="st0" width="23.9" height="10.7"/>
	<text transform="matrix(1.0058 0 0 1 1049.0703 47.2482)" class="st1 st2 st3">SA</text>
	<text transform="matrix(1.0058 0 0 1 1079.1318 47.3591)" class="st1 st2 st3">DO</text>
	<rect x="1040.4" y="32.1" class="st5" width="60.5" height="25.4"/>
	<rect x="1040.8" y="32.1" class="st5" width="60.5" height="25.4"/>
	<text transform="matrix(1.0058 0 0 1 1110.3311 46.6301)" class="st1 st2 st3">LU</text>
	<text transform="matrix(1.0058 0 0 1 1138.8945 46.8454)" class="st1 st2 st3">MA</text>
	<rect x="1154.3" y="38.9" class="st0" width="23.9" height="10.7"/>
	<text transform="matrix(1.0058 0 0 1 1165.9023 46.9001)" class="st1 st2 st3">ME</text>
	<text transform="matrix(1.0058 0 0 1 1199.6982 46.9279)" class="st1 st2 st3">GI</text>
	<rect x="1209.7" y="39.2" class="st0" width="23.9" height="10.7"/>
	<text transform="matrix(1.0058 0 0 1 1227.8701 47.1931)" class="st1 st2 st3">VE</text>
	<rect x="1236.9" y="39.2" class="st0" width="23.9" height="10.7"/>
	<text transform="matrix(1.0058 0 0 1 1261.5029 47.2482)" class="st1 st2 st3">SA</text>
	<text transform="matrix(1.0058 0 0 1 1291.5645 47.3591)" class="st1 st2 st3">DO</text>
	<rect x="1252.9" y="32.1" class="st5" width="60.5" height="25.4"/>
	<rect x="1253.2" y="32.1" class="st5" width="60.5" height="25.4"/>
	<text transform="matrix(1.0058 0 0 1 1322.7637 46.6301)" class="st1 st2 st3">LU</text>
	<text transform="matrix(1.0058 0 0 1 1351.3271 46.8454)" class="st1 st2 st3">MA</text>
	<rect x="1366.7" y="38.9" class="st0" width="23.9" height="10.7"/>
	<text transform="matrix(1.0058 0 0 1 1378.335 46.9001)" class="st1 st2 st3">ME</text>
	<text transform="matrix(1.0058 0 0 1 1412.1309 46.9279)" class="st1 st2 st3">GI</text>
	<rect x="1422.1" y="39.2" class="st0" width="23.9" height="10.7"/>
	<text transform="matrix(1.0058 0 0 1 1440.3027 47.1931)" class="st1 st2 st3">VE</text>
	<rect x="1449.3" y="39.2" class="st0" width="23.9" height="10.7"/>
	<text transform="matrix(1.0058 0 0 1 1473.9355 47.2482)" class="st1 st2 st3">SA</text>
	<text transform="matrix(1.0058 0 0 1 1503.9971 47.3591)" class="st1 st2 st3">DO</text>
	<rect x="1465.3" y="32.1" class="st5" width="60.5" height="25.4"/>
	<rect x="1465.6" y="32.1" class="st5" width="60.5" height="25.4"/>
	<text transform="matrix(1.0058 0 0 1 1535.1973 46.6301)" class="st1 st2 st3">LU</text>
	<text transform="matrix(1.0058 0 0 1 1563.7598 46.8454)" class="st1 st2 st3">MA</text>
	<rect x="1579.1" y="38.9" class="st0" width="23.9" height="10.7"/>
	<text transform="matrix(1.0058 0 0 1 1590.7676 46.9001)" class="st1 st2 st3">ME</text>
	<text transform="matrix(1.0058 0 0 1 1624.5645 46.9279)" class="st1 st2 st3">GI</text>
	<rect x="1634.5" y="39.2" class="st0" width="23.9" height="10.7"/>
	<text transform="matrix(1.0058 0 0 1 1652.7363 47.1931)" class="st1 st2 st3">VE</text>
	<rect x="1661.7" y="39.2" class="st0" width="23.9" height="10.7"/>
	<text transform="matrix(1.0058 0 0 1 1686.3691 47.2482)" class="st1 st2 st3">SA</text>
	<text transform="matrix(1.0058 0 0 1 1716.4297 47.3591)" class="st1 st2 st3">DO</text>
	<rect x="1677.7" y="32.1" class="st5" width="60.5" height="25.4"/>
	<rect x="1678.1" y="32.1" class="st5" width="60.5" height="25.4"/>
	<text transform="matrix(1.0058 0 0 1 1747.6299 46.6301)" class="st1 st2 st3">LU</text>
	<rect x="1791.6" y="38.9" class="st0" width="23.9" height="10.7"/>
	<rect x="2004" y="38.9" class="st0" width="23.9" height="10.7"/>
	<rect x="2086.6" y="39.2" class="st0" width="23.9" height="10.7"/>
	<rect x="862.8" y="38.6" class="st0" width="27.4" height="10.8"/>
	<rect x="862.7" y="38.5" class="st0" width="27.4" height="10.8"/>
	<rect x="864" y="10.3" class="st0" width="162.9" height="13.7"/>
	<text transform="matrix(1.0058 0 0 1 864.0049 21.0412)" class="st1 st2 st4">APRILE  1-30</text>
	<rect x="6.6" y="32.2" class="st5" width="30.6" height="25.4"/>
</g>
<rect x="6.3" y="92.4" class="st6" width="30.8" height="546.6"/>
<rect x="188.3" y="92.4" class="st6" width="60.7" height="546.6"/>
<rect x="401.3" y="92.4" class="st6" width="60.7" height="546.6"/>
<rect x="615.3" y="92.4" class="st6" width="60.7" height="546.6"/>
<rect x="829.3" y="92.4" class="st6" width="60.7" height="546.6"/>
<rect x="1042.2" y="92.4" class="st6" width="60.7" height="546.6"/>
<rect x="1255.1" y="92.4" class="st6" width="60.7" height="546.6"/>
<rect x="1468.1" y="92.4" class="st6" width="60.7" height="546.6"/>
<rect x="1681" y="92.4" class="st6" width="60.7" height="546.6"/>
<line class="st0" x1="247.6" y1="92.4" x2="247.6" y2="635.6"/>
<line class="st7" x1="859.6" y1="92.4" x2="859.6" y2="639"/>
</svg>
