<?xml version="1.0" encoding="utf-8"?>
<!-- Generator: Adobe Illustrator 24.1.3, SVG Export Plug-In . SVG Version: 6.00 Build 0)  -->
<svg version="1.1" xmlns="http://www.w3.org/2000/svg" xmlns:xlink="http://www.w3.org/1999/xlink" x="0px" y="0px"
	 viewBox="0 0 1248 836" style="enable-background:new 0 0 1248 836;" xml:space="preserve">
<style type="text/css">
	.st0{fill-rule:evenodd;clip-rule:evenodd;fill:#00857A;}
	.st1{fill-rule:evenodd;clip-rule:evenodd;fill:#FDC600;}
	.st2{fill-rule:evenodd;clip-rule:evenodd;fill:#E4005B;}
	.st3{fill-rule:evenodd;clip-rule:evenodd;fill:#007BC3;}
	.st4{fill-rule:evenodd;clip-rule:evenodd;fill:#BBCE00;}
	.st5{fill-rule:evenodd;clip-rule:evenodd;fill:#E74E0F;}
	.st6{fill:none;stroke:#D3D3D3;stroke-width:2;}
	.st7{fill:none;stroke:#D3D3D3;}
	.st8{fill:none;stroke:#CCCCCC;stroke-width:2;}
	.st9{fill:none;stroke:#CCCCCC;}
	.st10{fill:#00857A;}
	.st11{fill:#E74E0F;}
	.st12{fill:#B04190;}
	.st13{fill:#E4005B;}
	.st14{fill:#007BC3;}
	.st15{fill:#FDC600;}
	.st16{fill-rule:evenodd;clip-rule:evenodd;fill:#B04190;}
	.st17{fill:#BBCE00;}
	.st18{fill:#699ABF;}
	.st19{fill:#8269BF;}
	.st20{fill:#BF6969;}
	.st21{fill:#BFB369;}
	.st22{fill:#82BF69;}
	.st23{fill:#69BF9A;}
	.st24{fill:#BF69B3;}
	.st25{font-family:'ArialMT';}
	.st26{font-size:13.6686px;}
	.st27{font-family:'Arial-BoldMT';}
	.st28{font-size:15.6097px;}
	.st29{font-size:20px;}
</style>
<g id="Livello_1">
	<g>
		<rect x="318.9" y="145.7" class="st11" width="1.1" height="111.5"/>
		<rect x="319.5" y="145.7" class="st11" width="1.1" height="111.5"/>
		<rect x="321.6" y="145.7" class="st11" width="1.1" height="111.5"/>
		<rect x="322.3" y="145.7" class="st11" width="1.1" height="111.5"/>
		<rect x="322.3" y="145.7" class="st11" width="1.1" height="111.5"/>
		<rect x="322.4" y="145.7" class="st11" width="1.1" height="111.5"/>
		<rect x="322.4" y="145.7" class="st11" width="1.1" height="111.5"/>
		<rect x="322.5" y="145.7" class="st11" width="1.1" height="111.5"/>
		<rect x="375.7" y="145.7" class="st11" width="1.1" height="111.5"/>
		<rect x="380.3" y="145.7" class="st11" width="1.1" height="111.5"/>
		<rect x="381" y="145.7" class="st11" width="1.1" height="111.5"/>
		<rect x="381.2" y="145.7" class="st11" width="1.1" height="111.5"/>
		<rect x="381.6" y="145.7" class="st11" width="1.1" height="111.5"/>
		<rect x="381.6" y="145.7" class="st11" width="1.1" height="111.5"/>
		<rect x="381.6" y="145.7" class="st11" width="1.1" height="111.5"/>
		<rect x="381.7" y="145.7" class="st11" width="1.1" height="111.5"/>
		<rect x="381.7" y="145.7" class="st11" width="1.1" height="111.5"/>
		<rect x="382" y="145.7" class="st11" width="1.1" height="111.5"/>
		<rect x="382.3" y="145.7" class="st11" width="1.1" height="111.5"/>
		<rect x="555.7" y="145.7" class="st11" width="1.1" height="111.5"/>
		<rect x="555.7" y="145.7" class="st11" width="1.1" height="111.5"/>
		<rect x="555.9" y="145.7" class="st11" width="1.1" height="111.5"/>
		<rect x="556.2" y="145.7" class="st11" width="1.1" height="111.5"/>
		<rect x="556.7" y="145.7" class="st11" width="1.1" height="111.5"/>
		<rect x="558.1" y="145.7" class="st11" width="1.1" height="111.5"/>
		<rect x="679.3" y="145.7" class="st11" width="1.1" height="111.5"/>
		<rect x="825.2" y="145.7" class="st11" width="1.1" height="111.5"/>
		<rect x="827.1" y="145.7" class="st11" width="1.1" height="111.5"/>
		<rect x="828.2" y="145.7" class="st11" width="1.1" height="111.5"/>
		<rect x="828.5" y="145.7" class="st11" width="1.1" height="111.5"/>
		<rect x="828.6" y="145.7" class="st11" width="1.1" height="111.5"/>
		<rect x="829" y="145.7" class="st11" width="1.1" height="111.5"/>
		<rect x="829" y="145.7" class="st11" width="1.1" height="111.5"/>
		<rect x="829" y="145.7" class="st11" width="1.1" height="111.5"/>
		<rect x="829" y="145.7" class="st11" width="1.1" height="111.5"/>
		<rect x="829" y="145.7" class="st11" width="1.1" height="111.5"/>
		<rect x="829.1" y="145.7" class="st11" width="1.1" height="111.5"/>
		<rect x="829.1" y="145.7" class="st11" width="1.1" height="111.5"/>
		<rect x="829.1" y="145.7" class="st11" width="1.1" height="111.5"/>
		<rect x="829.1" y="145.7" class="st11" width="1.1" height="111.5"/>
		<rect x="829.1" y="145.7" class="st11" width="1.1" height="111.5"/>
		<rect x="829.2" y="145.7" class="st11" width="1.1" height="111.5"/>
		<rect x="829.2" y="145.7" class="st11" width="1.1" height="111.5"/>
		<rect x="829.3" y="145.7" class="st11" width="1.1" height="111.5"/>
		<rect x="829.3" y="145.7" class="st11" width="1.1" height="111.5"/>
		<rect x="829.4" y="145.7" class="st11" width="1.1" height="111.5"/>
		<rect x="829.4" y="145.7" class="st11" width="1.1" height="111.5"/>
		<rect x="829.6" y="145.7" class="st11" width="1.1" height="111.5"/>
		<rect x="829.8" y="145.7" class="st11" width="1.1" height="111.5"/>
		<rect x="829.8" y="145.7" class="st11" width="1.1" height="111.5"/>
		<rect x="829.8" y="145.7" class="st11" width="1.1" height="111.5"/>
		<rect x="829.8" y="145.7" class="st11" width="1.1" height="111.5"/>
		<rect x="829.9" y="145.7" class="st11" width="1.1" height="111.5"/>
		<rect x="829.9" y="145.7" class="st11" width="1.1" height="111.5"/>
		<rect x="829.9" y="145.7" class="st11" width="1.1" height="111.5"/>
		<rect x="829.9" y="145.7" class="st11" width="1.1" height="111.5"/>
		<rect x="830" y="145.7" class="st11" width="1.1" height="111.5"/>
		<rect x="830" y="145.7" class="st11" width="1.1" height="111.5"/>
		<rect x="830" y="145.7" class="st11" width="1.1" height="111.5"/>
		<rect x="830.1" y="145.7" class="st11" width="1.1" height="111.5"/>
		<rect x="830.1" y="145.7" class="st11" width="1.1" height="111.5"/>
		<rect x="830.1" y="145.7" class="st11" width="1.1" height="111.5"/>
		<rect x="830.2" y="145.7" class="st11" width="1.1" height="111.5"/>
		<rect x="830.2" y="145.7" class="st11" width="1.1" height="111.5"/>
		<rect x="830.3" y="145.7" class="st11" width="1.1" height="111.5"/>
		<rect x="830.4" y="145.7" class="st11" width="1.1" height="111.5"/>
		<rect x="830.4" y="145.7" class="st11" width="1.1" height="111.5"/>
		<rect x="830.4" y="145.7" class="st11" width="1.1" height="111.5"/>
		<rect x="830.4" y="145.7" class="st11" width="1.1" height="111.5"/>
		<rect x="830.5" y="145.7" class="st11" width="1.1" height="111.5"/>
		<rect x="830.6" y="145.7" class="st11" width="1.1" height="111.5"/>
		<rect x="830.6" y="145.7" class="st11" width="1.1" height="111.5"/>
		<rect x="830.6" y="145.7" class="st11" width="1.1" height="111.5"/>
		<rect x="830.7" y="145.7" class="st11" width="1.1" height="111.5"/>
		<rect x="830.7" y="145.7" class="st11" width="1.1" height="111.5"/>
		<rect x="830.8" y="145.7" class="st11" width="1.1" height="111.5"/>
		<rect x="831" y="145.7" class="st11" width="1.1" height="111.5"/>
		<rect x="831" y="145.7" class="st11" width="1.1" height="111.5"/>
		<rect x="831.1" y="145.7" class="st11" width="1.1" height="111.5"/>
		<rect x="831.1" y="145.7" class="st11" width="1.1" height="111.5"/>
		<rect x="831.2" y="145.7" class="st11" width="1.1" height="111.5"/>
		<rect x="831.7" y="145.7" class="st11" width="1.1" height="111.5"/>
		<rect x="831.7" y="145.7" class="st11" width="1.1" height="111.5"/>
		<rect x="831.8" y="145.7" class="st11" width="1.1" height="111.5"/>
		<rect x="831.8" y="145.7" class="st11" width="1.1" height="111.5"/>
		<rect x="831.8" y="145.7" class="st11" width="1.1" height="111.5"/>
		<rect x="831.8" y="145.7" class="st11" width="1.1" height="111.5"/>
		<rect x="831.8" y="145.7" class="st11" width="1.1" height="111.5"/>
		<rect x="831.8" y="145.7" class="st11" width="1.1" height="111.5"/>
		<rect x="831.9" y="145.7" class="st11" width="1.1" height="111.5"/>
		<rect x="831.9" y="145.7" class="st11" width="1.1" height="111.5"/>
		<rect x="831.9" y="145.7" class="st11" width="1.1" height="111.5"/>
		<rect x="831.9" y="145.7" class="st11" width="1.1" height="111.5"/>
		<rect x="832.4" y="145.7" class="st11" width="1.1" height="111.5"/>
		<rect x="832.5" y="145.7" class="st11" width="1.1" height="111.5"/>
		<rect x="833" y="145.7" class="st11" width="1.1" height="111.5"/>
		<rect x="833.1" y="145.7" class="st11" width="1.1" height="111.5"/>
		<rect x="833.1" y="145.7" class="st11" width="1.1" height="111.5"/>
		<rect x="833.1" y="145.7" class="st11" width="1.1" height="111.5"/>
		<rect x="833.2" y="145.7" class="st11" width="1.1" height="111.5"/>
		<rect x="833.2" y="145.7" class="st11" width="1.1" height="111.5"/>
		<rect x="833.2" y="145.7" class="st11" width="1.1" height="111.5"/>
		<rect x="833.2" y="145.7" class="st11" width="1.1" height="111.5"/>
		<rect x="833.2" y="145.7" class="st11" width="1.1" height="111.5"/>
		<rect x="833.3" y="145.7" class="st11" width="1.1" height="111.5"/>
		<rect x="833.3" y="145.7" class="st11" width="1.1" height="111.5"/>
		<rect x="833.3" y="145.7" class="st11" width="1.1" height="111.5"/>
		<rect x="833.3" y="145.7" class="st11" width="1.1" height="111.5"/>
		<rect x="833.3" y="145.7" class="st11" width="1.1" height="111.5"/>
		<rect x="833.3" y="145.7" class="st11" width="1.1" height="111.5"/>
		<rect x="833.4" y="145.7" class="st11" width="1.1" height="111.5"/>
		<rect x="833.5" y="145.7" class="st11" width="1.1" height="111.5"/>
		<rect x="833.5" y="145.7" class="st11" width="1.1" height="111.5"/>
		<rect x="833.8" y="145.7" class="st11" width="1.1" height="111.5"/>
		<rect x="833.9" y="145.7" class="st11" width="1.1" height="111.5"/>
		<rect x="834" y="145.7" class="st11" width="1.1" height="111.5"/>
		<rect x="834.1" y="145.7" class="st11" width="1.1" height="111.5"/>
		<rect x="834.1" y="145.7" class="st11" width="1.1" height="111.5"/>
		<rect x="834.1" y="145.7" class="st11" width="1.1" height="111.5"/>
		<rect x="834.4" y="145.7" class="st11" width="1.1" height="111.5"/>
		<rect x="834.6" y="145.7" class="st11" width="1.1" height="111.5"/>
		<rect x="834.7" y="145.7" class="st11" width="1.1" height="111.5"/>
		<rect x="837.6" y="145.7" class="st11" width="1.1" height="111.5"/>
		<rect x="837.7" y="145.7" class="st11" width="1.1" height="111.5"/>
		<rect x="838.3" y="145.7" class="st11" width="1.1" height="111.5"/>
		<rect x="871" y="145.7" class="st11" width="1.1" height="111.5"/>
		<rect x="871.2" y="145.7" class="st11" width="1.1" height="111.5"/>
		<rect x="871.4" y="145.7" class="st11" width="1.1" height="111.5"/>
		<rect x="872.4" y="145.7" class="st11" width="1.1" height="111.5"/>
		<rect x="872.8" y="145.7" class="st11" width="1.1" height="111.5"/>
		<rect x="872.9" y="145.7" class="st11" width="1.1" height="111.5"/>
		<rect x="873" y="145.7" class="st11" width="1.1" height="111.5"/>
		<rect x="878.7" y="145.7" class="st11" width="1.1" height="111.5"/>
		<rect x="881.9" y="145.7" class="st11" width="1.1" height="111.5"/>
		<rect x="882" y="145.7" class="st11" width="1.1" height="111.5"/>
		<rect x="882" y="145.7" class="st11" width="1.1" height="111.5"/>
		<rect x="893" y="145.7" class="st11" width="1.1" height="111.5"/>
		<rect x="907.3" y="145.7" class="st11" width="1.1" height="111.5"/>
		<rect x="907.5" y="145.7" class="st11" width="1.1" height="111.5"/>
		<rect x="907.7" y="145.7" class="st11" width="1.1" height="111.5"/>
		<rect x="907.7" y="145.7" class="st11" width="1.1" height="111.5"/>
		<rect x="907.7" y="145.7" class="st11" width="1.2" height="111.5"/>
		<rect x="909.8" y="145.7" class="st11" width="1.1" height="111.5"/>
		<rect x="1215.1" y="145.7" class="st11" width="1.1" height="111.5"/>
		<rect x="1215.2" y="145.7" class="st11" width="1.1" height="111.5"/>
		<rect x="1215.9" y="145.7" class="st11" width="1.1" height="111.5"/>
		<rect x="1218.3" y="145.7" class="st11" width="1.1" height="111.5"/>
		<rect x="1218.3" y="145.7" class="st11" width="1.1" height="111.5"/>
		<rect x="1218.4" y="145.7" class="st11" width="1.1" height="111.5"/>
		<rect x="1218.4" y="145.7" class="st11" width="1.1" height="111.5"/>
		<rect x="1222" y="145.7" class="st11" width="1.1" height="111.5"/>
		<rect x="1222.3" y="145.7" class="st11" width="1.1" height="111.5"/>
		<rect x="1222.3" y="145.7" class="st11" width="1.1" height="111.5"/>
		<rect x="1222.4" y="145.7" class="st11" width="1.1" height="111.5"/>
		<rect x="1222.4" y="145.7" class="st11" width="1.1" height="111.5"/>
		<rect x="1222.6" y="145.7" class="st11" width="1.1" height="111.5"/>
		<rect x="1226.5" y="145.7" class="st11" width="1.1" height="111.5"/>
		<rect x="1226.6" y="145.7" class="st11" width="1.1" height="111.5"/>
		<rect x="1226.6" y="145.7" class="st11" width="1.1" height="111.5"/>
		<rect x="1226.7" y="145.7" class="st11" width="1.1" height="111.5"/>
	</g>
	<g>
		<rect x="321.1" y="368" class="st13" width="1.1" height="111.1"/>
		<rect x="323.2" y="368" class="st13" width="1.1" height="111.1"/>
		<rect x="323.3" y="368" class="st13" width="1.1" height="111.1"/>
		<rect x="323.5" y="368" class="st13" width="1.1" height="111.1"/>
		<rect x="323.6" y="368" class="st13" width="1.1" height="111.1"/>
		<rect x="323.7" y="368" class="st13" width="1.1" height="111.1"/>
		<rect x="324" y="368" class="st13" width="1.1" height="111.1"/>
		<rect x="324.3" y="368" class="st13" width="1.1" height="111.1"/>
		<rect x="324.5" y="368" class="st13" width="1.1" height="111.1"/>
		<rect x="324.6" y="368" class="st13" width="1.1" height="111.1"/>
		<rect x="324.7" y="368" class="st13" width="1.2" height="111.1"/>
		<rect x="325.9" y="368" class="st13" width="1.1" height="111.1"/>
		<rect x="334" y="368" class="st13" width="1.2" height="111.1"/>
		<rect x="338.9" y="368" class="st13" width="1.1" height="111.1"/>
		<rect x="339.8" y="368" class="st13" width="1.1" height="111.1"/>
		<rect x="377.5" y="368" class="st13" width="1.1" height="111.1"/>
		<rect x="377.5" y="368" class="st13" width="1.1" height="111.1"/>
		<rect x="377.7" y="368" class="st13" width="1.1" height="111.1"/>
		<rect x="377.7" y="368" class="st13" width="1.1" height="111.1"/>
		<rect x="378.1" y="368" class="st13" width="1.1" height="111.1"/>
		<rect x="382.9" y="368" class="st13" width="1.1" height="111.1"/>
		<rect x="383.2" y="368" class="st13" width="1.1" height="111.1"/>
		<rect x="383.4" y="368" class="st13" width="1.1" height="111.1"/>
		<rect x="383.7" y="368" class="st13" width="1.1" height="111.1"/>
		<rect x="383.7" y="368" class="st13" width="1.1" height="111.1"/>
		<rect x="383.8" y="368" class="st13" width="1.1" height="111.1"/>
		<rect x="383.9" y="368" class="st13" width="1.1" height="111.1"/>
		<rect x="384.4" y="368" class="st13" width="1.1" height="111.1"/>
		<rect x="384.9" y="368" class="st13" width="2.1" height="111.1"/>
		<rect x="388.1" y="368" class="st13" width="1.1" height="111.1"/>
		<rect x="555.9" y="368" class="st13" width="1.1" height="111.1"/>
		<rect x="558.9" y="368" class="st13" width="1.1" height="111.1"/>
		<rect x="559" y="368" class="st13" width="1.1" height="111.1"/>
		<rect x="825.9" y="368" class="st13" width="1.1" height="111.1"/>
		<rect x="826.3" y="368" class="st13" width="1.1" height="111.1"/>
		<rect x="827.4" y="368" class="st13" width="1.1" height="111.1"/>
		<rect x="827.6" y="368" class="st13" width="1.1" height="111.1"/>
		<rect x="828.9" y="368" class="st13" width="1.1" height="111.1"/>
		<rect x="829.1" y="368" class="st13" width="1.1" height="111.1"/>
		<rect x="830.7" y="368" class="st13" width="1.1" height="111.1"/>
		<rect x="831.8" y="368" class="st13" width="1.1" height="111.1"/>
		<rect x="832.1" y="368" class="st13" width="1.1" height="111.1"/>
		<rect x="832.6" y="368" class="st13" width="1.1" height="111.1"/>
		<rect x="832.8" y="368" class="st13" width="1.1" height="111.1"/>
		<rect x="833.6" y="368" class="st13" width="1.1" height="111.1"/>
		<rect x="833.7" y="368" class="st13" width="1.1" height="111.1"/>
		<rect x="833.8" y="368" class="st13" width="1.1" height="111.1"/>
		<rect x="834.2" y="368" class="st13" width="1.1" height="111.1"/>
		<rect x="834.7" y="368" class="st13" width="1.1" height="111.1"/>
		<rect x="834.9" y="368" class="st13" width="1.1" height="111.1"/>
		<rect x="835.1" y="368" class="st13" width="1.1" height="111.1"/>
		<rect x="838.1" y="368" class="st13" width="1.1" height="111.1"/>
		<rect x="839" y="368" class="st13" width="1.2" height="111.1"/>
		<rect x="849.3" y="368" class="st13" width="1.1" height="111.1"/>
		<rect x="870.7" y="368" class="st13" width="1.1" height="111.1"/>
		<rect x="871.2" y="368" class="st13" width="1.1" height="111.1"/>
		<rect x="871.7" y="368" class="st13" width="1.1" height="111.1"/>
		<rect x="872" y="368" class="st13" width="1.1" height="111.1"/>
		<rect x="873.2" y="368" class="st13" width="1.1" height="111.1"/>
		<rect x="875.8" y="368" class="st13" width="1.1" height="111.1"/>
		<rect x="877.2" y="368" class="st13" width="1.1" height="111.1"/>
		<rect x="877.7" y="368" class="st13" width="1.1" height="111.1"/>
		<rect x="879" y="368" class="st13" width="1.1" height="111.1"/>
		<rect x="880.7" y="368" class="st13" width="1.1" height="111.1"/>
		<rect x="881.7" y="368" class="st13" width="1.1" height="111.1"/>
		<rect x="881.9" y="368" class="st13" width="1.1" height="111.1"/>
		<rect x="882.3" y="368" class="st13" width="1.1" height="111.1"/>
		<rect x="882.4" y="368" class="st13" width="1.1" height="111.1"/>
		<rect x="882.7" y="368" class="st13" width="1.1" height="111.1"/>
		<rect x="883.6" y="368" class="st13" width="1.1" height="111.1"/>
		<rect x="883.7" y="368" class="st13" width="1.1" height="111.1"/>
		<rect x="884.1" y="368" class="st13" width="1.1" height="111.1"/>
		<rect x="884.4" y="368" class="st13" width="1.1" height="111.1"/>
		<rect x="884.6" y="368" class="st13" width="1.3" height="111.1"/>
		<rect x="893.5" y="368" class="st13" width="1.1" height="111.1"/>
		<rect x="906.9" y="368" class="st13" width="1.1" height="111.1"/>
		<rect x="908.2" y="368" class="st13" width="1.1" height="111.1"/>
		<rect x="1176.1" y="368" class="st13" width="1.1" height="111.1"/>
		<rect x="1177" y="368" class="st13" width="1.1" height="111.1"/>
		<rect x="1177.2" y="368" class="st13" width="1.1" height="111.1"/>
		<rect x="1177.2" y="368" class="st13" width="1.1" height="111.1"/>
		<rect x="1182.5" y="368" class="st13" width="1.6" height="111.1"/>
		<rect x="1186.2" y="368" class="st13" width="1.1" height="111.1"/>
		<rect x="1186.2" y="368" class="st13" width="1.1" height="111.1"/>
		<rect x="1186.2" y="368" class="st13" width="3.2" height="111.1"/>
		<rect x="1214.1" y="368" class="st13" width="1.1" height="111.1"/>
		<rect x="1219.1" y="368" class="st13" width="1.1" height="111.1"/>
		<rect x="1219.2" y="368" class="st13" width="1.1" height="111.1"/>
		<rect x="1219.5" y="368" class="st13" width="1.1" height="111.1"/>
		<rect x="1219.7" y="368" class="st13" width="1.1" height="111.1"/>
		<rect x="1219.9" y="368" class="st13" width="1.1" height="111.1"/>
		<rect x="1220.3" y="368" class="st13" width="1.1" height="111.1"/>
		<rect x="1221.2" y="368" class="st13" width="1.1" height="111.1"/>
		<rect x="1221.8" y="368" class="st13" width="1.1" height="111.1"/>
		<rect x="1222.1" y="368" class="st13" width="1.1" height="111.1"/>
		<rect x="1222.3" y="368" class="st13" width="1.1" height="111.1"/>
		<rect x="1222.4" y="368" class="st13" width="1.1" height="111.1"/>
		<rect x="1222.6" y="368" class="st13" width="1.3" height="111.1"/>
		<rect x="1224.2" y="368" class="st13" width="1.7" height="111.1"/>
		<rect x="1226" y="368" class="st13" width="1.1" height="111.1"/>
		<rect x="1226.1" y="368" class="st13" width="1.1" height="111.1"/>
		<rect x="1226.2" y="368" class="st13" width="1.1" height="111.1"/>
		<rect x="1226.3" y="368" class="st13" width="1.1" height="111.1"/>
		<rect x="1226.6" y="368" class="st13" width="1.1" height="111.1"/>
		<rect x="1227.1" y="368" class="st13" width="1.1" height="111.1"/>
		<rect x="1227.4" y="368" class="st13" width="1.1" height="111.1"/>
		<rect x="1228.7" y="368" class="st13" width="1.1" height="111.1"/>
	</g>
	<g>
		<rect x="320" y="34.7" class="st10" width="1.1" height="111"/>
		<rect x="320.6" y="34.7" class="st10" width="1.5" height="111"/>
		<rect x="322.2" y="34.7" class="st10" width="1.1" height="111"/>
		<rect x="322.3" y="34.7" class="st10" width="1.1" height="111"/>
		<rect x="322.4" y="34.7" class="st10" width="1.1" height="111"/>
		<rect x="322.5" y="34.7" class="st10" width="1.1" height="111"/>
		<rect x="323.4" y="34.7" class="st10" width="1.1" height="111"/>
		<rect x="323.5" y="34.7" class="st10" width="1.1" height="111"/>
		<rect x="376.7" y="34.7" class="st10" width="1.1" height="111"/>
		<rect x="377.1" y="34.7" class="st10" width="1.3" height="111"/>
		<rect x="378.4" y="34.7" class="st10" width="2.9" height="111"/>
		<rect x="555.1" y="34.7" class="st10" width="1.1" height="111"/>
		<rect x="555.2" y="34.7" class="st10" width="1.1" height="111"/>
		<rect x="555.3" y="34.7" class="st10" width="1.1" height="111"/>
		<rect x="557.1" y="34.7" class="st10" width="1.1" height="111"/>
		<rect x="557.5" y="34.7" class="st10" width="1.1" height="111"/>
		<rect x="558.1" y="34.7" class="st10" width="1.1" height="111"/>
		<rect x="558.3" y="34.7" class="st10" width="1.1" height="111"/>
		<rect x="825.5" y="34.7" class="st10" width="1.1" height="111"/>
		<rect x="825.9" y="34.7" class="st10" width="1.1" height="111"/>
		<rect x="827" y="34.7" class="st10" width="1.1" height="111"/>
		<rect x="827.2" y="34.7" class="st10" width="1.1" height="111"/>
		<rect x="827.6" y="34.7" class="st10" width="1.1" height="111"/>
		<rect x="828.5" y="34.7" class="st10" width="1.1" height="111"/>
		<rect x="829.2" y="34.7" class="st10" width="1.1" height="111"/>
		<rect x="829.2" y="34.7" class="st10" width="1.1" height="111"/>
		<rect x="829.3" y="34.7" class="st10" width="1.1" height="111"/>
		<rect x="829.3" y="34.7" class="st10" width="1.1" height="111"/>
		<rect x="829.3" y="34.7" class="st10" width="1.1" height="111"/>
		<rect x="829.3" y="34.7" class="st10" width="1.1" height="111"/>
		<rect x="829.3" y="34.7" class="st10" width="1.1" height="111"/>
		<rect x="829.4" y="34.7" class="st10" width="1.1" height="111"/>
		<rect x="829.4" y="34.7" class="st10" width="1.1" height="111"/>
		<rect x="829.5" y="34.7" class="st10" width="1.1" height="111"/>
		<rect x="830" y="34.7" class="st10" width="1.1" height="111"/>
		<rect x="830" y="34.7" class="st10" width="1.1" height="111"/>
		<rect x="830.1" y="34.7" class="st10" width="1.1" height="111"/>
		<rect x="830.1" y="34.7" class="st10" width="1.1" height="111"/>
		<rect x="830.1" y="34.7" class="st10" width="1.1" height="111"/>
		<rect x="830.2" y="34.7" class="st10" width="1.1" height="111"/>
		<rect x="830.4" y="34.7" class="st10" width="1.1" height="111"/>
		<rect x="830.5" y="34.7" class="st10" width="1.1" height="111"/>
		<rect x="830.6" y="34.7" class="st10" width="1.1" height="111"/>
		<rect x="830.7" y="34.7" class="st10" width="1.1" height="111"/>
		<rect x="830.8" y="34.7" class="st10" width="1.1" height="111"/>
		<rect x="830.9" y="34.7" class="st10" width="1.1" height="111"/>
		<rect x="830.9" y="34.7" class="st10" width="1.1" height="111"/>
		<rect x="830.9" y="34.7" class="st10" width="1.1" height="111"/>
		<rect x="831.3" y="34.7" class="st10" width="1.1" height="111"/>
		<rect x="831.5" y="34.7" class="st10" width="1.1" height="111"/>
		<rect x="831.5" y="34.7" class="st10" width="1.1" height="111"/>
		<rect x="831.6" y="34.7" class="st10" width="1.1" height="111"/>
		<rect x="831.7" y="34.7" class="st10" width="1.1" height="111"/>
		<rect x="831.7" y="34.7" class="st10" width="1.1" height="111"/>
		<rect x="832" y="34.7" class="st10" width="1.1" height="111"/>
		<rect x="832" y="34.7" class="st10" width="1.1" height="111"/>
		<rect x="832" y="34.7" class="st10" width="1.1" height="111"/>
		<rect x="832" y="34.7" class="st10" width="1.1" height="111"/>
		<rect x="832.1" y="34.7" class="st10" width="1.1" height="111"/>
		<rect x="833.4" y="34.7" class="st10" width="1.1" height="111"/>
		<rect x="833.4" y="34.7" class="st10" width="1.1" height="111"/>
		<rect x="833.4" y="34.7" class="st10" width="1.1" height="111"/>
		<rect x="833.5" y="34.7" class="st10" width="1.1" height="111"/>
		<rect x="833.5" y="34.7" class="st10" width="1.1" height="111"/>
		<rect x="833.5" y="34.7" class="st10" width="1.1" height="111"/>
		<rect x="833.6" y="34.7" class="st10" width="1.1" height="111"/>
		<rect x="834.1" y="34.7" class="st10" width="1.1" height="111"/>
		<rect x="837.4" y="34.7" class="st10" width="1.1" height="111"/>
		<rect x="837.5" y="34.7" class="st10" width="1.1" height="111"/>
		<rect x="837.6" y="34.7" class="st10" width="1.1" height="111"/>
		<rect x="837.8" y="34.7" class="st10" width="1.1" height="111"/>
		<rect x="839.7" y="34.7" class="st10" width="1.4" height="111"/>
		<rect x="848.1" y="34.7" class="st10" width="1.1" height="111"/>
		<rect x="849" y="34.7" class="st10" width="1.1" height="111"/>
		<rect x="869.4" y="34.7" class="st10" width="1.1" height="111"/>
		<rect x="869.4" y="34.7" class="st10" width="1.1" height="111"/>
		<rect x="870.3" y="34.7" class="st10" width="1.1" height="111"/>
		<rect x="871.1" y="34.7" class="st10" width="1.1" height="111"/>
		<rect x="871.2" y="34.7" class="st10" width="1.1" height="111"/>
		<rect x="871.3" y="34.7" class="st10" width="1.1" height="111"/>
		<rect x="871.3" y="34.7" class="st10" width="1.1" height="111"/>
		<rect x="871.3" y="34.7" class="st10" width="1.1" height="111"/>
		<rect x="871.4" y="34.7" class="st10" width="1.1" height="111"/>
		<rect x="872.5" y="34.7" class="st10" width="1.1" height="111"/>
		<rect x="873" y="34.7" class="st10" width="1.1" height="111"/>
		<rect x="873.2" y="34.7" class="st10" width="2.2" height="111"/>
		<rect x="875.7" y="34.7" class="st10" width="1.1" height="111"/>
		<rect x="877" y="34.7" class="st10" width="1.1" height="111"/>
		<rect x="877.4" y="34.7" class="st10" width="1.1" height="111"/>
		<rect x="878.5" y="34.7" class="st10" width="1.1" height="111"/>
		<rect x="878.6" y="34.7" class="st10" width="1.1" height="111"/>
		<rect x="878.8" y="34.7" class="st10" width="1.4" height="111"/>
		<rect x="880.3" y="34.7" class="st10" width="1.1" height="111"/>
		<rect x="881.1" y="34.7" class="st10" width="1.1" height="111"/>
		<rect x="881.3" y="34.7" class="st10" width="1.1" height="111"/>
		<rect x="881.5" y="34.7" class="st10" width="1.1" height="111"/>
		<rect x="881.5" y="34.7" class="st10" width="1.1" height="111"/>
		<rect x="881.7" y="34.7" class="st10" width="1.1" height="111"/>
		<rect x="882" y="34.7" class="st10" width="1.1" height="111"/>
		<rect x="882.1" y="34.7" class="st10" width="1.1" height="111"/>
		<rect x="883.1" y="34.7" class="st10" width="1.1" height="111"/>
		<rect x="883.2" y="34.7" class="st10" width="1.1" height="111"/>
		<rect x="883.7" y="34.7" class="st10" width="1.1" height="111"/>
		<rect x="883.7" y="34.7" class="st10" width="1.1" height="111"/>
		<rect x="884" y="34.7" class="st10" width="1.1" height="111"/>
		<rect x="905.2" y="34.7" class="st10" width="1.3" height="111"/>
		<rect x="906.5" y="34.7" class="st10" width="1.1" height="111"/>
		<rect x="907.4" y="34.7" class="st10" width="1.1" height="111"/>
		<rect x="907.5" y="34.7" class="st10" width="1.1" height="111"/>
		<rect x="909.8" y="34.7" class="st10" width="2.2" height="111"/>
		<rect x="1175.4" y="34.7" class="st10" width="1.1" height="111"/>
		<rect x="1176.1" y="34.7" class="st10" width="1.1" height="111"/>
		<rect x="1176.9" y="34.7" class="st10" width="1.1" height="111"/>
		<rect x="1178" y="34.7" class="st10" width="1.1" height="111"/>
		<rect x="1178.1" y="34.7" class="st10" width="1.1" height="111"/>
		<rect x="1182.5" y="34.7" class="st10" width="1.1" height="111"/>
		<rect x="1214.1" y="34.7" class="st10" width="1.1" height="111"/>
		<rect x="1214.3" y="34.7" class="st10" width="1.1" height="111"/>
		<rect x="1214.8" y="34.7" class="st10" width="1.1" height="111"/>
		<rect x="1215.4" y="34.7" class="st10" width="1.1" height="111"/>
		<rect x="1216" y="34.7" class="st10" width="1.1" height="111"/>
		<rect x="1216.5" y="34.7" class="st10" width="1.1" height="111"/>
		<rect x="1217" y="34.7" class="st10" width="1.1" height="111"/>
		<rect x="1217.4" y="34.7" class="st10" width="1.1" height="111"/>
		<rect x="1218" y="34.7" class="st10" width="1.1" height="111"/>
		<rect x="1218" y="34.7" class="st10" width="1.1" height="111"/>
		<rect x="1218" y="34.7" class="st10" width="1.1" height="111"/>
		<rect x="1218" y="34.7" class="st10" width="1.1" height="111"/>
		<rect x="1218.1" y="34.7" class="st10" width="1.1" height="111"/>
		<rect x="1218.2" y="34.7" class="st10" width="1.1" height="111"/>
		<rect x="1218.2" y="34.7" class="st10" width="1.1" height="111"/>
		<rect x="1218.3" y="34.7" class="st10" width="1.1" height="111"/>
		<rect x="1218.3" y="34.7" class="st10" width="1.1" height="111"/>
		<rect x="1219.1" y="34.7" class="st10" width="1.1" height="111"/>
		<rect x="1219.2" y="34.7" class="st10" width="1.1" height="111"/>
		<rect x="1219.6" y="34.7" class="st10" width="1.1" height="111"/>
		<rect x="1219.7" y="34.7" class="st10" width="1.1" height="111"/>
		<rect x="1219.9" y="34.7" class="st10" width="1.1" height="111"/>
		<rect x="1220.5" y="34.7" class="st10" width="1.1" height="111"/>
		<rect x="1221.5" y="34.7" class="st10" width="1.1" height="111"/>
		<rect x="1221.5" y="34.7" class="st10" width="1.1" height="111"/>
		<rect x="1222.1" y="34.7" class="st10" width="1.1" height="111"/>
		<rect x="1222.3" y="34.7" class="st10" width="1.1" height="111"/>
		<rect x="1222.6" y="34.7" class="st10" width="1.1" height="111"/>
		<rect x="1224" y="34.7" class="st10" width="1.1" height="111"/>
		<rect x="1225.9" y="34.7" class="st10" width="1.1" height="111"/>
		<rect x="1226" y="34.7" class="st10" width="1.1" height="111"/>
		<rect x="1226.6" y="34.7" class="st10" width="1.1" height="111"/>
		<rect x="1226.9" y="34.7" class="st10" width="1.1" height="111"/>
		<rect x="1228.7" y="34.7" class="st10" width="1.1" height="111"/>
		<rect x="1228.8" y="34.7" class="st10" width="1.1" height="111"/>
	</g>
	<g>
		<rect x="320" y="702.1" class="st17" width="1.1" height="111.2"/>
		<rect x="320.3" y="702.1" class="st17" width="1.1" height="111.2"/>
		<rect x="320.5" y="702.1" class="st17" width="1.1" height="111.2"/>
		<rect x="1216.7" y="702.1" class="st17" width="1.1" height="111.2"/>
		<rect x="1217.2" y="702.1" class="st17" width="1.1" height="111.2"/>
		<rect x="1217.3" y="702.1" class="st17" width="1.1" height="111.2"/>
		<rect x="1218.9" y="702.1" class="st17" width="1.1" height="111.2"/>
		<rect x="1219.9" y="702.1" class="st17" width="1.1" height="111.2"/>
		<rect x="1219.9" y="702.1" class="st17" width="1.1" height="111.2"/>
		<rect x="1219.9" y="702.1" class="st17" width="1.1" height="111.2"/>
		<rect x="1220.2" y="702.1" class="st17" width="1.1" height="111.2"/>
		<rect x="1223.8" y="702.1" class="st17" width="1.1" height="111.2"/>
	</g>
	<g>
		<rect x="310" y="590.3" class="st15" width="1.1" height="111.8"/>
		<rect x="310.1" y="590.3" class="st15" width="1.1" height="111.8"/>
		<rect x="310.1" y="590.3" class="st15" width="1.1" height="111.8"/>
		<rect x="319.4" y="590.3" class="st15" width="1.1" height="111.8"/>
		<rect x="319.4" y="590.3" class="st15" width="1.1" height="111.8"/>
		<rect x="362.5" y="590.3" class="st15" width="1.1" height="111.8"/>
		<rect x="364.3" y="590.3" class="st15" width="1.1" height="111.8"/>
		<rect x="364.3" y="590.3" class="st15" width="1.1" height="111.8"/>
		<rect x="364.3" y="590.3" class="st15" width="1.1" height="111.8"/>
		<rect x="369.9" y="590.3" class="st15" width="1.1" height="111.8"/>
		<rect x="372" y="590.3" class="st15" width="1.1" height="111.8"/>
		<rect x="372" y="590.3" class="st15" width="1.1" height="111.8"/>
		<rect x="821.6" y="590.3" class="st15" width="1.1" height="111.8"/>
		<rect x="824.9" y="590.3" class="st15" width="1.1" height="111.8"/>
		<rect x="826.5" y="590.3" class="st15" width="1.1" height="111.8"/>
		<rect x="826.5" y="590.3" class="st15" width="1.1" height="111.8"/>
		<rect x="826.5" y="590.3" class="st15" width="1.1" height="111.8"/>
		<rect x="827.1" y="590.3" class="st15" width="1.1" height="111.8"/>
		<rect x="827.2" y="590.3" class="st15" width="1.1" height="111.8"/>
		<rect x="827.7" y="590.3" class="st15" width="1.1" height="111.8"/>
		<rect x="828.5" y="590.3" class="st15" width="1.1" height="111.8"/>
		<rect x="828.5" y="590.3" class="st15" width="1.1" height="111.8"/>
		<rect x="829.7" y="590.3" class="st15" width="1.1" height="111.8"/>
		<rect x="829.9" y="590.3" class="st15" width="1.1" height="111.8"/>
		<rect x="830.8" y="590.3" class="st15" width="1.1" height="111.8"/>
		<rect x="833.5" y="590.3" class="st15" width="1.1" height="111.8"/>
		<rect x="833.5" y="590.3" class="st15" width="1.1" height="111.8"/>
		<rect x="864.1" y="590.3" class="st15" width="1.1" height="111.8"/>
		<rect x="871.4" y="590.3" class="st15" width="1.1" height="111.8"/>
		<rect x="878.4" y="590.3" class="st15" width="1.1" height="111.8"/>
		<rect x="878.4" y="590.3" class="st15" width="1.1" height="111.8"/>
		<rect x="888.2" y="590.3" class="st15" width="1.1" height="111.8"/>
		<rect x="888.2" y="590.3" class="st15" width="1.1" height="111.8"/>
		<rect x="900.7" y="590.3" class="st15" width="1.1" height="111.8"/>
		<rect x="902.3" y="590.3" class="st15" width="1.1" height="111.8"/>
		<rect x="902.3" y="590.3" class="st15" width="1.1" height="111.8"/>
		<rect x="905.4" y="590.3" class="st15" width="1.1" height="111.8"/>
		<rect x="905.4" y="590.3" class="st15" width="1.1" height="111.8"/>
		<rect x="1175.1" y="590.3" class="st15" width="1.1" height="111.8"/>
		<rect x="1176.2" y="590.3" class="st15" width="1.1" height="111.8"/>
		<rect x="1176.2" y="590.3" class="st15" width="1.1" height="111.8"/>
		<rect x="1181.2" y="590.3" class="st15" width="1.1" height="111.8"/>
		<rect x="1181.2" y="590.3" class="st15" width="1.1" height="111.8"/>
		<rect x="1186.5" y="590.3" class="st15" width="1.1" height="111.8"/>
		<rect x="1186.5" y="590.3" class="st15" width="1.1" height="111.8"/>
		<rect x="1211.9" y="590.3" class="st15" width="1.1" height="111.8"/>
		<rect x="1212.2" y="590.3" class="st15" width="1.1" height="111.8"/>
		<rect x="1212.2" y="590.3" class="st15" width="1.1" height="111.8"/>
		<rect x="1212.2" y="590.3" class="st15" width="1.1" height="111.8"/>
		<rect x="1215.4" y="590.3" class="st15" width="1.1" height="111.8"/>
		<rect x="1215.5" y="590.3" class="st15" width="1.1" height="111.8"/>
		<rect x="1215.6" y="590.3" class="st15" width="1.1" height="111.8"/>
		<rect x="1219.2" y="590.3" class="st15" width="1.1" height="111.8"/>
		<rect x="1219.5" y="590.3" class="st15" width="1.1" height="111.8"/>
		<rect x="1219.5" y="590.3" class="st15" width="1.1" height="111.8"/>
		<rect x="1219.6" y="590.3" class="st15" width="1.1" height="111.8"/>
		<rect x="1226.5" y="590.3" class="st15" width="1.1" height="111.8"/>
	</g>
	<g>
		<rect x="381.7" y="478.9" class="st14" width="1.1" height="111.7"/>
		<rect x="381.7" y="478.9" class="st14" width="1.1" height="111.7"/>
		<rect x="381.7" y="478.9" class="st14" width="1.1" height="111.7"/>
		<rect x="381.7" y="478.9" class="st14" width="1.1" height="111.7"/>
		<rect x="557.6" y="478.9" class="st14" width="1.1" height="111.7"/>
		<rect x="830.4" y="478.9" class="st14" width="1.1" height="111.7"/>
		<rect x="830.5" y="478.9" class="st14" width="1.1" height="111.7"/>
		<rect x="830.6" y="478.9" class="st14" width="1.1" height="111.7"/>
		<rect x="830.6" y="478.9" class="st14" width="1.1" height="111.7"/>
		<rect x="830.7" y="478.9" class="st14" width="1.1" height="111.7"/>
		<rect x="830.8" y="478.9" class="st14" width="1.1" height="111.7"/>
		<rect x="830.9" y="478.9" class="st14" width="1.1" height="111.7"/>
		<rect x="830.9" y="478.9" class="st14" width="1.1" height="111.7"/>
		<rect x="831.1" y="478.9" class="st14" width="1.1" height="111.7"/>
		<rect x="831.2" y="478.9" class="st14" width="1.1" height="111.7"/>
		<rect x="831.3" y="478.9" class="st14" width="1.1" height="111.7"/>
		<rect x="831.3" y="478.9" class="st14" width="1.1" height="111.7"/>
		<rect x="831.3" y="478.9" class="st14" width="1.1" height="111.7"/>
		<rect x="831.3" y="478.9" class="st14" width="1.1" height="111.7"/>
		<rect x="831.3" y="478.9" class="st14" width="1.1" height="111.7"/>
		<rect x="831.4" y="478.9" class="st14" width="1.1" height="111.7"/>
		<rect x="831.4" y="478.9" class="st14" width="1.1" height="111.7"/>
		<rect x="831.4" y="478.9" class="st14" width="1.1" height="111.7"/>
		<rect x="831.5" y="478.9" class="st14" width="1.1" height="111.7"/>
		<rect x="831.5" y="478.9" class="st14" width="1.1" height="111.7"/>
		<rect x="831.6" y="478.9" class="st14" width="1.1" height="111.7"/>
		<rect x="831.6" y="478.9" class="st14" width="1.1" height="111.7"/>
		<rect x="831.7" y="478.9" class="st14" width="1.1" height="111.7"/>
		<rect x="831.7" y="478.9" class="st14" width="1.1" height="111.7"/>
		<rect x="831.7" y="478.9" class="st14" width="1.1" height="111.7"/>
		<rect x="831.7" y="478.9" class="st14" width="1.1" height="111.7"/>
		<rect x="831.7" y="478.9" class="st14" width="1.1" height="111.7"/>
		<rect x="831.8" y="478.9" class="st14" width="1.1" height="111.7"/>
		<rect x="831.8" y="478.9" class="st14" width="1.1" height="111.7"/>
		<rect x="831.9" y="478.9" class="st14" width="1.1" height="111.7"/>
		<rect x="832" y="478.9" class="st14" width="1.1" height="111.7"/>
		<rect x="832" y="478.9" class="st14" width="1.1" height="111.7"/>
		<rect x="832.2" y="478.9" class="st14" width="1.1" height="111.7"/>
		<rect x="832.5" y="478.9" class="st14" width="1.1" height="111.7"/>
		<rect x="832.5" y="478.9" class="st14" width="1.1" height="111.7"/>
		<rect x="832.5" y="478.9" class="st14" width="1.1" height="111.7"/>
		<rect x="832.7" y="478.9" class="st14" width="1.1" height="111.7"/>
		<rect x="832.7" y="478.9" class="st14" width="1.1" height="111.7"/>
		<rect x="832.7" y="478.9" class="st14" width="1.1" height="111.7"/>
		<rect x="832.7" y="478.9" class="st14" width="1.1" height="111.7"/>
		<rect x="832.8" y="478.9" class="st14" width="1.1" height="111.7"/>
		<rect x="832.9" y="478.9" class="st14" width="1.1" height="111.7"/>
		<rect x="832.9" y="478.9" class="st14" width="1.1" height="111.7"/>
		<rect x="833.1" y="478.9" class="st14" width="1.1" height="111.7"/>
		<rect x="833.1" y="478.9" class="st14" width="1.1" height="111.7"/>
		<rect x="833.2" y="478.9" class="st14" width="1.1" height="111.7"/>
		<rect x="833.2" y="478.9" class="st14" width="1.1" height="111.7"/>
		<rect x="833.3" y="478.9" class="st14" width="1.1" height="111.7"/>
		<rect x="833.3" y="478.9" class="st14" width="1.1" height="111.7"/>
		<rect x="833.3" y="478.9" class="st14" width="1.1" height="111.7"/>
		<rect x="833.5" y="478.9" class="st14" width="1.1" height="111.7"/>
		<rect x="833.9" y="478.9" class="st14" width="1.1" height="111.7"/>
		<rect x="833.9" y="478.9" class="st14" width="1.1" height="111.7"/>
		<rect x="833.9" y="478.9" class="st14" width="1.1" height="111.7"/>
		<rect x="834.4" y="478.9" class="st14" width="1.1" height="111.7"/>
		<rect x="834.4" y="478.9" class="st14" width="1.1" height="111.7"/>
		<rect x="834.5" y="478.9" class="st14" width="1.1" height="111.7"/>
		<rect x="834.5" y="478.9" class="st14" width="1.1" height="111.7"/>
		<rect x="834.5" y="478.9" class="st14" width="1.1" height="111.7"/>
		<rect x="834.5" y="478.9" class="st14" width="1.1" height="111.7"/>
		<rect x="834.5" y="478.9" class="st14" width="1.1" height="111.7"/>
		<rect x="834.6" y="478.9" class="st14" width="1.1" height="111.7"/>
		<rect x="834.6" y="478.9" class="st14" width="1.1" height="111.7"/>
		<rect x="834.7" y="478.9" class="st14" width="1.1" height="111.7"/>
		<rect x="834.7" y="478.9" class="st14" width="1.1" height="111.7"/>
		<rect x="834.8" y="478.9" class="st14" width="1.1" height="111.7"/>
		<rect x="834.8" y="478.9" class="st14" width="1.1" height="111.7"/>
		<rect x="834.9" y="478.9" class="st14" width="1.1" height="111.7"/>
		<rect x="835.1" y="478.9" class="st14" width="1.1" height="111.7"/>
		<rect x="835.2" y="478.9" class="st14" width="1.1" height="111.7"/>
		<rect x="835.3" y="478.9" class="st14" width="1.1" height="111.7"/>
		<rect x="835.5" y="478.9" class="st14" width="1.1" height="111.7"/>
		<rect x="835.5" y="478.9" class="st14" width="1.1" height="111.7"/>
		<rect x="835.5" y="478.9" class="st14" width="1.1" height="111.7"/>
		<rect x="835.5" y="478.9" class="st14" width="1.1" height="111.7"/>
		<rect x="835.5" y="478.9" class="st14" width="1.1" height="111.7"/>
		<rect x="836.1" y="478.9" class="st14" width="1.1" height="111.7"/>
		<rect x="839" y="478.9" class="st14" width="1.1" height="111.7"/>
		<rect x="870.4" y="478.9" class="st14" width="1.1" height="111.7"/>
		<rect x="872.3" y="478.9" class="st14" width="1.1" height="111.7"/>
		<rect x="874" y="478.9" class="st14" width="1.1" height="111.7"/>
		<rect x="883" y="478.9" class="st14" width="1.1" height="111.7"/>
		<rect x="883" y="478.9" class="st14" width="1.1" height="111.7"/>
		<rect x="883.1" y="478.9" class="st14" width="1.1" height="111.7"/>
	</g>
	<g>
		<rect x="380.2" y="257.2" class="st12" width="1.1" height="110.4"/>
		<rect x="380.8" y="257.2" class="st12" width="1.1" height="110.4"/>
		<rect x="553.4" y="257.2" class="st12" width="1.1" height="110.4"/>
		<rect x="553.5" y="257.2" class="st12" width="1.1" height="110.4"/>
		<rect x="553.6" y="257.2" class="st12" width="1.1" height="110.4"/>
		<rect x="554.7" y="257.2" class="st12" width="1.1" height="110.4"/>
		<rect x="554.8" y="257.2" class="st12" width="1.1" height="110.4"/>
		<rect x="554.9" y="257.2" class="st12" width="1.1" height="110.4"/>
		<rect x="828.6" y="257.2" class="st12" width="1.1" height="110.4"/>
		<rect x="892.8" y="257.2" class="st12" width="2" height="110.4"/>
		<rect x="905" y="257.2" class="st12" width="1.1" height="110.4"/>
		<rect x="907.2" y="257.2" class="st12" width="1.1" height="110.4"/>
		<rect x="907.4" y="257.2" class="st12" width="1.1" height="110.4"/>
		<rect x="907.6" y="257.2" class="st12" width="1.1" height="110.4"/>
		<rect x="1217.5" y="257.2" class="st12" width="1.1" height="110.4"/>
		<rect x="1218.4" y="257.2" class="st12" width="1.1" height="110.4"/>
		<rect x="1227.2" y="257.2" class="st12" width="1.1" height="110.4"/>
		<rect x="1227.3" y="257.2" class="st12" width="1.1" height="110.4"/>
		<rect x="1227.3" y="257.2" class="st12" width="1.1" height="110.4"/>
		<rect x="1227.5" y="257.2" class="st12" width="1.1" height="110.4"/>
		<rect x="1228.5" y="257.2" class="st12" width="1.1" height="110.4"/>
		<rect x="1228.6" y="257.2" class="st12" width="1.2" height="110.4"/>
		<rect x="1229.8" y="257.2" class="st12" width="1.1" height="110.4"/>
	</g>
</g>
<g id="Livello_2">
	<line class="st9" x1="197.8" y1="34.2" x2="197.8" y2="814.1"/>
	<line class="st9" x1="370" y1="34.2" x2="370" y2="814.1"/>
	<line class="st9" x1="542.1" y1="34.2" x2="542.1" y2="814.1"/>
	<line class="st9" x1="715.4" y1="34.2" x2="715.4" y2="814.1"/>
	<line class="st6" x1="26.1" y1="821.4" x2="26.1" y2="34.2"/>
	<line class="st9" x1="887.6" y1="34.2" x2="887.6" y2="814.1"/>
	<line class="st9" x1="1059.7" y1="34.2" x2="1059.7" y2="814.1"/>
	<line class="st6" x1="1230.3" y1="821.4" x2="1230.3" y2="34.2"/>
	<line class="st6" x1="26.1" y1="34.3" x2="1230.3" y2="34.3"/>
	<line class="st7" x1="26.1" y1="145.6" x2="1230.3" y2="145.6"/>
	<line class="st7" x1="26.1" y1="256.9" x2="1230.3" y2="256.9"/>
	<line class="st7" x1="26.1" y1="368.2" x2="1230.3" y2="368.2"/>
	<line class="st7" x1="26.1" y1="479.5" x2="1230.3" y2="479.5"/>
	<line class="st7" x1="26.1" y1="590.8" x2="1230.3" y2="590.8"/>
	<line class="st7" x1="26.1" y1="702.1" x2="1230.3" y2="702.1"/>
	<path class="st8" d="M26.1,821.6V814h1204.2v7.6"/>
	<g transform="translate(96.46881285935525,0)">
		<line class="st9" x1="15.2" y1="813.4" x2="15.2" y2="821.6"/>
		<text transform="matrix(1 0 0 1 -4.5372 835.376)" class="st25 st26">12 PM</text>
	</g>
	<g transform="translate(159.52664791640706,0)">
		<line class="st9" x1="38.3" y1="814.5" x2="38.3" y2="822.7"/>
		<text transform="matrix(1 0 0 1 15.0935 836.4902)" class="st27 st28">Tue 17</text>
	</g>
	<text transform="matrix(1 0 0 1 -0.4307 836.4902)" class="st27 st28">Mon 16</text>
	<g transform="translate(222.58448297345888,0)">
		<line class="st9" x1="61.5" y1="813.4" x2="61.5" y2="821.6"/>
		<text transform="matrix(1 0 0 1 41.728 835.376)" class="st25 st26">12 PM</text>
	</g>
	<g transform="translate(285.6423180305107,0)">
		<line class="st9" x1="84.6" y1="813.4" x2="84.6" y2="821.6"/>
		<text transform="matrix(1 0 0 1 57.8401 836.4902)" class="st27 st28">Wed 18</text>
	</g>
	<g transform="translate(348.7001530875625,0)">
		<line class="st9" x1="107.7" y1="813.4" x2="107.7" y2="821.6"/>
		<text transform="matrix(1 0 0 1 87.9951 835.376)" class="st25 st26">12 PM</text>
	</g>
	<g transform="translate(411.75798814461433,0)">
		<line class="st9" x1="130.9" y1="813.4" x2="130.9" y2="821.6"/>
		<text transform="matrix(1 0 0 1 106.2596 836.4902)" class="st27 st28">Thu 19</text>
	</g>
	<g transform="translate(474.8158232016662,0)">
		<line class="st9" x1="154" y1="813.4" x2="154" y2="821.6"/>
		<text transform="matrix(1 0 0 1 134.2623 835.376)" class="st25 st26">12 PM</text>
	</g>
	<g transform="translate(537.873658258718,0)">
		<line class="st9" x1="177.1" y1="813.4" x2="177.1" y2="821.6"/>
		<text transform="matrix(1 0 0 1 156.3344 836.4902)" class="st27 st28">Fri 20</text>
	</g>
	<g transform="translate(600.9314933157698,0)">
		<line class="st9" x1="200.3" y1="813.4" x2="200.3" y2="821.6"/>
		<text transform="matrix(1 0 0 1 180.5314 835.376)" class="st25 st26">12 PM</text>
	</g>
	<g transform="translate(663.9893283728215,0)">
		<line class="st9" x1="223.4" y1="813.4" x2="223.4" y2="821.6"/>
		<text transform="matrix(1 0 0 1 200.3105 836.4902)" class="st27 st28">Sat 21</text>
	</g>
	<g transform="translate(727.0471634298734,0)">
		<line class="st9" x1="246.5" y1="813.4" x2="246.5" y2="821.6"/>
		<text transform="matrix(1 0 0 1 226.7966 835.376)" class="st25 st26">12 PM</text>
	</g>
	<g transform="translate(790.1049984869252,0)">
		<line class="st9" x1="269.7" y1="813.4" x2="269.7" y2="821.6"/>
		<text transform="matrix(1 0 0 1 245.0649 836.4902)" class="st27 st28">Sun 22</text>
	</g>
	<g transform="translate(853.1628335439771,0)">
		<line class="st9" x1="292.8" y1="813.4" x2="292.8" y2="821.6"/>
		<text transform="matrix(1 0 0 1 273.0627 835.376)" class="st25 st26">12 PM</text>
	</g>
	<text transform="matrix(1 0 0 1 25.6838 16.7321)" class="st27 st29">Stop inizio pandemia (16-22 marzo 2020)</text>
</g>
</svg>
