<?xml version="1.0" encoding="utf-8"?>
<!-- Generator: Adobe Illustrator 23.0.6, SVG Export Plug-In . SVG Version: 6.00 Build 0)  -->
<svg version="1.1" id="container" xmlns="http://www.w3.org/2000/svg" xmlns:xlink="http://www.w3.org/1999/xlink" x="0px" y="0px"
	 viewBox="0 0 1922.3 36.6" style="enable-background:new 0 0 1922.3 36.6;" xml:space="preserve">
<style type="text/css">
	.st0{fill:none;}
	.st1{font-family:'Helvetica';}
	.st2{font-size:12px;}
	.st3{font-family:'Helvetica-Bold';}
</style>
<rect x="-0.2" y="-22.3" class="st0" width="11.8" height="55.5"/>
<text transform="matrix(0.5 -0.866 0.866 0.5 8.2224 33.2645)" class="st1 st2">01.03</text>
<rect x="22.3" y="-22.3" class="st0" width="8.9" height="55.5"/>
<rect x="51.5" y="-22.3" class="st0" width="8.9" height="55.5"/>
<rect x="80.5" y="-22.3" class="st0" width="8.9" height="55.5"/>
<rect x="110.2" y="-22.3" class="st0" width="8.9" height="55.5"/>
<text transform="matrix(0.5 -0.866 0.866 0.5 38.9377 33.2645)" class="st1 st2">02.03</text>
<text transform="matrix(0.5 -0.866 0.866 0.5 69.6428 33.2645)" class="st3 st2">03.03</text>
<text transform="matrix(0.5 -0.866 0.866 0.5 100.7107 33.1356)" class="st3 st2">04.03</text>
<rect x="95.8" y="-22.3" class="st0" width="11.8" height="55.5"/>
<text transform="matrix(0.5 -0.866 0.866 0.5 129.8855 33.0653)" class="st1 st2">05.03</text>
<rect x="144.2" y="-22.3" class="st0" width="11.8" height="55.5"/>
<text transform="matrix(0.5 -0.866 0.866 0.5 159.842 33.0238)" class="st1 st2">06.03</text>
<rect x="168.2" y="-22.3" class="st0" width="11.8" height="55.5"/>
<text transform="matrix(0.5 -0.866 0.866 0.5 189.8732 33.0526)" class="st1 st2">07.03</text>
<rect x="217.1" y="-22.3" class="st0" width="11.8" height="55.5"/>
<text transform="matrix(0.5 -0.866 0.866 0.5 223.5647 33.2645)" class="st1 st2">08.03</text>
<rect x="247.1" y="-22.3" class="st0" width="11.8" height="55.5"/>
<text transform="matrix(0.5 -0.866 0.866 0.5 253.5285 33.2645)" class="st1 st2">09.03</text>
<rect x="278.6" y="-27.8" class="st0" width="11.8" height="55.5"/>
<text transform="matrix(0.5 -0.866 0.866 0.5 284.9831 33.3788)" class="st3 st2">10.03</text>
<rect x="309.6" y="-27.8" class="st0" width="11.8" height="55.5"/>
<text transform="matrix(0.5 -0.866 0.866 0.5 316.0652 32.8314)" class="st3 st2">11.03</text>
<rect x="340.5" y="-27.8" class="st0" width="11.8" height="55.5"/>
<text transform="matrix(0.5 -0.866 0.866 0.5 346.8928 33.3007)" class="st1 st2">12.03</text>
<rect x="371.8" y="-27.8" class="st0" width="11.8" height="55.5"/>
<text transform="matrix(0.5 -0.866 0.866 0.5 378.2146 33.3588)" class="st1 st2">13.03</text>
<rect x="402" y="-27.8" class="st0" width="11.8" height="55.5"/>
<text transform="matrix(0.5 -0.866 0.866 0.5 408.3923 33.3588)" class="st1 st2">14.03</text>
<rect x="433.1" y="-27.8" class="st0" width="11.8" height="55.5"/>
<text transform="matrix(0.5 -0.866 0.866 0.5 439.4851 33.3588)" class="st1 st2">15.03</text>
<rect x="465.3" y="-27.8" class="st0" width="11.8" height="55.5"/>
<text transform="matrix(0.5 -0.866 0.866 0.5 471.7219 33.5067)" class="st1 st2">16.03</text>
<rect x="496.2" y="-27.8" class="st0" width="11.8" height="55.5"/>
<text transform="matrix(0.5 -0.866 0.866 0.5 502.5862 33.3471)" class="st3 st2">17.03</text>
<rect x="526.3" y="-27.8" class="st0" width="11.8" height="55.5"/>
<text transform="matrix(0.5 -0.866 0.866 0.5 532.7639 33.5067)" class="st3 st2">18.03</text>
<rect x="557" y="-27.8" class="st0" width="11.8" height="55.5"/>
<text transform="matrix(0.5 -0.866 0.866 0.5 563.3991 33.3471)" class="st1 st2">19.03</text>
<rect x="588.1" y="-27.8" class="st0" width="11.8" height="55.5"/>
<text transform="matrix(0.5 -0.866 0.866 0.5 594.4919 33.5067)" class="st1 st2">20.03</text>
<rect x="619.2" y="-27.8" class="st0" width="11.8" height="55.5"/>
<text transform="matrix(0.5 -0.866 0.866 0.5 625.5847 33.3471)" class="st1 st2">21.03</text>
<rect x="650.3" y="-27.8" class="st0" width="11.8" height="55.5"/>
<text transform="matrix(0.5 -0.866 0.866 0.5 656.6779 33.3471)" class="st1 st2">22.03</text>
<rect x="682.5" y="-27.8" class="st0" width="11.8" height="55.5"/>
<text transform="matrix(0.5 -0.866 0.866 0.5 688.9147 33.1869)" class="st1 st2">23.03</text>
<rect x="712.9" y="-27.8" class="st0" width="11.8" height="55.5"/>
<text transform="matrix(0.5 -0.866 0.866 0.5 719.321 33.4965)" class="st3 st2">24.03</text>
<rect x="744.2" y="-27.8" class="st0" width="11.8" height="55.5"/>
<text transform="matrix(0.5 -0.866 0.866 0.5 750.6428 33.3632)" class="st3 st2">25.03</text>
<rect x="776.5" y="-27.8" class="st0" width="11.8" height="55.5"/>
<text transform="matrix(0.5 -0.866 0.866 0.5 782.8796 33.2294)" class="st1 st2">26.03</text>
<rect x="807.1" y="-27.8" class="st0" width="11.8" height="55.5"/>
<text transform="matrix(0.5 -0.866 0.866 0.5 813.5148 33.4965)" class="st1 st2">27.03</text>
<rect x="837.7" y="-27.8" class="st0" width="11.8" height="55.5"/>
<text transform="matrix(0.5 -0.866 0.866 0.5 844.1501 33.3095)" class="st1 st2">28.03</text>
<rect x="868.4" y="-27.8" class="st0" width="11.8" height="55.5"/>
<text transform="matrix(0.5 -0.866 0.866 0.5 874.7853 33.1303)" class="st1 st2">29.03</text>
<rect x="898.8" y="-27.8" class="st0" width="11.8" height="55.5"/>
<text transform="matrix(0.5 -0.866 0.866 0.5 905.8781 33.1303)" class="st1 st2">30.03</text>
<rect x="930.1" y="-27.8" class="st0" width="11.8" height="55.5"/>
<text transform="matrix(0.5 -0.866 0.866 0.5 936.5139 33.1303)" class="st3 st2">31.03</text>
<rect x="962.8" y="-27.8" class="st0" width="11.8" height="55.5"/>
<text transform="matrix(0.5 -0.866 0.866 0.5 969.2082 33.5302)" class="st3 st2">01.04</text>
<rect x="992.9" y="-27.8" class="st0" width="11.8" height="55.5"/>
<text transform="matrix(0.5 -0.866 0.866 0.5 1000.2258 33.1713)" class="st1 st2">02.04</text>
<rect x="1023.4" y="-27.8" class="st0" width="11.8" height="55.5"/>
<text transform="matrix(0.5 -0.866 0.866 0.5 1029.7815 33.1713)" class="st1 st2">03.04</text>
<rect x="1053.8" y="-27.8" class="st0" width="11.8" height="55.5"/>
<text transform="matrix(0.5 -0.866 0.866 0.5 1060.2136 33.0058)" class="st1 st2">04.04</text>
<rect x="1084.5" y="-27.8" class="st0" width="11.8" height="55.5"/>
<text transform="matrix(0.5 -0.866 0.866 0.5 1092.1082 32.9823)" class="st1 st2">05.04</text>
<rect x="1116.1" y="-22.2" class="st0" width="11.8" height="55.5"/>
<text transform="matrix(0.5 -0.866 0.866 0.5 1122.5408 33.3305)" class="st1 st2">06.04</text>
<rect x="1148" y="-22.2" class="st0" width="11.8" height="55.5"/>
<text transform="matrix(0.5 -0.866 0.866 0.5 1154.4353 33.3305)" class="st3 st2">07.04</text>
<rect x="1179.3" y="-22.2" class="st0" width="11.8" height="55.5"/>
<text transform="matrix(0.5 -0.866 0.866 0.5 1185.7449 33.3305)" class="st3 st2">08.04</text>
<rect x="1210" y="-22.2" class="st0" width="11.8" height="55.5"/>
<text transform="matrix(0.5 -0.866 0.866 0.5 1216.4695 33.3305)" class="st1 st2">09.04</text>
<rect x="1240.2" y="-22.2" class="st0" width="11.8" height="55.5"/>
<text transform="matrix(0.5 -0.866 0.866 0.5 1246.6096 33.3305)" class="st1 st2">10.04</text>
<rect x="1271.5" y="-22.2" class="st0" width="11.8" height="55.5"/>
<text transform="matrix(0.5 -0.866 0.866 0.5 1277.9192 33.3305)" class="st1 st2">11.04</text>
<rect x="1301.1" y="-22.2" class="st0" width="11.8" height="55.5"/>
<text transform="matrix(0.5 -0.866 0.866 0.5 1308.6951 33.3305)" class="st1 st2">12.04</text>
<rect x="1326.3" y="-22.2" class="st0" width="11.8" height="55.5"/>
<text transform="matrix(0.5 -0.866 0.866 0.5 1340.3259 33.3305)" class="st1 st2">13.04</text>
<rect x="1365.2" y="-27.8" class="st0" width="11.8" height="55.5"/>
<text transform="matrix(0.5 -0.866 0.866 0.5 1371.6516 33.3676)" class="st3 st2">14.04</text>
<rect x="1396.6" y="-22.2" class="st0" width="11.8" height="55.5"/>
<text transform="matrix(0.5 -0.866 0.866 0.5 1402.9773 33.3676)" class="st3 st2">15.04</text>
<rect x="1427.6" y="-22.2" class="st0" width="11.8" height="55.5"/>
<text transform="matrix(0.5 -0.866 0.866 0.5 1433.9973 33.3676)" class="st1 st2">16.04</text>
<rect x="1458.9" y="-22.2" class="st0" width="11.8" height="55.5"/>
<text transform="matrix(0.5 -0.866 0.866 0.5 1465.323 33.3676)" class="st1 st2">17.04</text>
<rect x="1491.4" y="-22.2" class="st0" width="11.8" height="55.5"/>
<text transform="matrix(0.5 -0.866 0.866 0.5 1497.8694 33.3676)" class="st1 st2">18.04</text>
<rect x="1523.4" y="-22.2" class="st0" width="11.8" height="55.5"/>
<text transform="matrix(0.5 -0.866 0.866 0.5 1529.8054 33.3676)" class="st1 st2">19.04</text>
<rect x="1555.3" y="-22.2" class="st0" width="11.8" height="55.5"/>
<text transform="matrix(0.5 -0.866 0.866 0.5 1561.7415 33.3676)" class="st1 st2">20.04</text>
<rect x="1584.8" y="-22" class="st0" width="11.8" height="55.5"/>
<text transform="matrix(0.5 -0.866 0.866 0.5 1591.2361 33.5028)" class="st3 st2">21.04</text>
<rect x="1615.2" y="-22" class="st0" width="11.8" height="55.5"/>
<text transform="matrix(0.5 -0.866 0.866 0.5 1621.6458 33.5028)" class="st3 st2">22.04</text>
<rect x="1644.7" y="-22" class="st0" width="11.8" height="55.5"/>
<text transform="matrix(0.5 -0.866 0.866 0.5 1651.1399 33.5028)" class="st1 st2">23.04</text>
<rect x="1675.7" y="-22" class="st0" width="11.8" height="55.5"/>
<text transform="matrix(0.5 -0.866 0.866 0.5 1682.1604 33.5028)" class="st1 st2">24.04</text>
<rect x="1706.2" y="-22" class="st0" width="11.8" height="55.5"/>
<text transform="matrix(0.5 -0.866 0.866 0.5 1712.5701 33.5028)" class="st1 st2">25.04</text>
<rect x="1736.9" y="-22.5" class="st0" width="11.8" height="55.5"/>
<text transform="matrix(0.5 -0.866 0.866 0.5 1743.2849 33.0663)" class="st1 st2">26.04</text>
<rect x="1768.2" y="-22.5" class="st0" width="11.8" height="55.5"/>
<text transform="matrix(0.5 -0.866 0.866 0.5 1774.6106 33.0663)" class="st1 st2">27.04</text>
<rect x="1799.5" y="-22.5" class="st0" width="11.8" height="55.5"/>
<text transform="matrix(0.5 -0.866 0.866 0.5 1805.9363 33.0663)" class="st3 st2">28.04</text>
<rect x="1829.9" y="-22.5" class="st0" width="11.8" height="55.5"/>
<text transform="matrix(0.5 -0.866 0.866 0.5 1836.3459 33.0663)" class="st3 st2">29.04</text>
<rect x="1858" y="-22.5" class="st0" width="11.8" height="55.5"/>
<text transform="matrix(0.5 -0.866 0.866 0.5 1868.4504 33.0663)" class="st1 st2">30.04</text>
<rect x="1884" y="-27.8" class="st0" width="11.8" height="55.5"/>
<rect x="1908" y="-27.8" class="st0" width="11.8" height="55.5"/>
</svg>
