<?xml version="1.0" encoding="utf-8"?>
<!-- Generator: Adobe Illustrator 24.0.3, SVG Export Plug-In . SVG Version: 6.00 Build 0)  -->
<svg version="1.1" id="Livello_1" xmlns="http://www.w3.org/2000/svg" xmlns:xlink="http://www.w3.org/1999/xlink" x="0px" y="0px"
	 viewBox="0 0 1149.3 155.9" style="enable-background:new 0 0 1149.3 155.9;" xml:space="preserve">
<style type="text/css">
	.st0{fill:#808080;}
	.st1{font-family:'Helvetica';}
	.st2{font-size:10px;}
	.st3{letter-spacing:-2;}
	.st4{font-size:10.0262px;}
	.st5{letter-spacing:-1;}
	.st6{fill:#C27FF8;}
	.st7{font-size:11px;}
	.st8{fill:#26FF00;}
	.st9{fill:#4786BF;}
	.st10{fill:#940044;}
	.st11{fill:#FFBEBF;}
	.st12{fill:#FF0000;}
	.st13{fill:#FF52FF;}
	.st14{fill:#FFF700;}
	.st15{fill:#FF6641;}
	.st16{fill:#FF008F;}
	.st17{fill:#000072;}
	.st18{fill:#A100FF;}
	.st19{fill:#0025FF;}
	.st20{fill:#A67C52;}
	.st21{fill:#BFFFB8;}
	.st22{fill:#A7BAFF;}
	.st23{fill:#CEFF00;}
	.st24{fill:#00C08B;}
	.st25{fill:#00FFFF;}
	.st26{fill:none;stroke:#808080;stroke-width:0.5;stroke-miterlimit:10;}
</style>
<text transform="matrix(1 0 0 1 84.297 142.8158)" class="st0 st1 st2">1</text>
<text transform="matrix(1 0 0 1 89.8971 142.8158)" class="st0 st1 st2 st3"> </text>
<text transform="matrix(1 0 0 1 90.597 142.8158)" class="st0 st1 st2">AM</text>
<text transform="matrix(1.0227 0 0 1 39.063 142.8028)" class="st0 st1 st4">0</text>
<text transform="matrix(1.0227 0 0 1 44.8052 142.8028)" class="st0 st1 st4 st3"> </text>
<text transform="matrix(1.0227 0 0 1 45.5229 142.8028)" class="st0 st1 st4">AM</text>
<text transform="matrix(1 0 0 1 129.1451 142.8158)" class="st0 st1 st2">2</text>
<text transform="matrix(1 0 0 1 134.7451 142.8158)" class="st0 st1 st2 st5"> </text>
<text transform="matrix(1 0 0 1 135.9452 142.8158)" class="st0 st1 st2">AM</text>
<text transform="matrix(1 0 0 1 174.2897 142.8158)" class="st0 st1 st2">3</text>
<text transform="matrix(1 0 0 1 179.8896 142.8158)" class="st0 st1 st2 st5"> </text>
<text transform="matrix(1 0 0 1 181.0896 142.8158)" class="st0 st1 st2">AM</text>
<text transform="matrix(1 0 0 1 219.2408 142.8158)" class="st0 st1 st2">4</text>
<text transform="matrix(1 0 0 1 224.8408 142.8158)" class="st0 st1 st2 st5"> </text>
<text transform="matrix(1 0 0 1 226.0409 142.8158)" class="st0 st1 st2">AM</text>
<text transform="matrix(1 0 0 1 264.5317 142.8158)" class="st0 st1 st2">5</text>
<text transform="matrix(1 0 0 1 270.1318 142.8158)" class="st0 st1 st2 st5"> </text>
<text transform="matrix(1 0 0 1 271.3315 142.8158)" class="st0 st1 st2">AM</text>
<text transform="matrix(1 0 0 1 309.6528 142.8158)" class="st0 st1 st2">6</text>
<text transform="matrix(1 0 0 1 315.2529 142.8158)" class="st0 st1 st2 st5"> </text>
<text transform="matrix(1 0 0 1 316.453 142.8158)" class="st0 st1 st2">AM</text>
<text transform="matrix(1 0 0 1 354.7739 142.8158)" class="st0 st1 st2">7</text>
<text transform="matrix(1 0 0 1 360.374 142.8158)" class="st0 st1 st2 st5"> </text>
<text transform="matrix(1 0 0 1 361.5741 142.8158)" class="st0 st1 st2">AM</text>
<text transform="matrix(1 0 0 1 399.8961 142.8158)" class="st0 st1 st2">8</text>
<text transform="matrix(1 0 0 1 405.4962 142.8158)" class="st0 st1 st2 st5"> </text>
<text transform="matrix(1 0 0 1 406.696 142.8158)" class="st0 st1 st2">AM</text>
<text transform="matrix(1 0 0 1 444.901 142.8158)" class="st0 st1 st2">9</text>
<text transform="matrix(1 0 0 1 450.5011 142.8158)" class="st0 st1 st2 st5"> </text>
<text transform="matrix(1 0 0 1 451.7009 142.8158)" class="st0 st1 st2">AM</text>
<text transform="matrix(1 0 0 1 487.8193 142.8158)" class="st0 st1 st2">10</text>
<text transform="matrix(1 0 0 1 497.5194 142.8158)" class="st0 st1 st2 st5"> </text>
<text transform="matrix(1 0 0 1 498.8193 142.8158)" class="st0 st1 st2">AM</text>
<text transform="matrix(1 0 0 1 533.5792 142.8158)" class="st0 st1 st2 st5">11</text>
<text transform="matrix(1 0 0 1 542.4792 142.8158)" class="st0 st1 st2 st5"> </text>
<text transform="matrix(1 0 0 1 543.7792 142.8158)" class="st0 st1 st2">AM</text>
<text transform="matrix(1 0 0 1 578.2003 142.8158)" class="st0 st1 st2 st5">12</text>
<text transform="matrix(1 0 0 1 587.1003 142.8158)" class="st0 st1 st2"> </text>
<text transform="matrix(1 0 0 1 589.4004 142.8158)" class="st0 st1 st2">AM</text>
<text transform="matrix(1 0 0 1 625.7511 142.8158)" class="st0 st1 st2">1</text>
<text transform="matrix(1 0 0 1 631.3512 142.8158)" class="st0 st1 st2 st3"> </text>
<text transform="matrix(1 0 0 1 632.051 142.8158)" class="st0 st1 st2">PM</text>
<text transform="matrix(1 0 0 1 670.5996 142.8158)" class="st0 st1 st2">2</text>
<text transform="matrix(1 0 0 1 676.1998 142.8158)" class="st0 st1 st2 st5"> </text>
<text transform="matrix(1 0 0 1 677.3998 142.8158)" class="st0 st1 st2">PM</text>
<text transform="matrix(1 0 0 1 715.7444 142.8158)" class="st0 st1 st2">3</text>
<text transform="matrix(1 0 0 1 721.3442 142.8158)" class="st0 st1 st2 st5"> </text>
<text transform="matrix(1 0 0 1 722.5443 142.8158)" class="st0 st1 st2">PM</text>
<text transform="matrix(1 0 0 1 760.6953 142.8158)" class="st0 st1 st2">4</text>
<text transform="matrix(1 0 0 1 766.2954 142.8158)" class="st0 st1 st2 st5"> </text>
<text transform="matrix(1 0 0 1 767.4955 142.8158)" class="st0 st1 st2">PM</text>
<text transform="matrix(1 0 0 1 805.9866 142.8158)" class="st0 st1 st2">5</text>
<text transform="matrix(1 0 0 1 811.5864 142.8158)" class="st0 st1 st2 st5"> </text>
<text transform="matrix(1 0 0 1 812.7865 142.8158)" class="st0 st1 st2">PM</text>
<text transform="matrix(1 0 0 1 851.1074 142.8158)" class="st0 st1 st2">6</text>
<text transform="matrix(1 0 0 1 856.7075 142.8158)" class="st0 st1 st2 st5"> </text>
<text transform="matrix(1 0 0 1 857.9076 142.8158)" class="st0 st1 st2">PM</text>
<text transform="matrix(1 0 0 1 896.2296 142.8158)" class="st0 st1 st2">7</text>
<text transform="matrix(1 0 0 1 901.8296 142.8158)" class="st0 st1 st2 st5"> </text>
<text transform="matrix(1 0 0 1 903.0298 142.8158)" class="st0 st1 st2">PM</text>
<text transform="matrix(1 0 0 1 941.3507 142.8158)" class="st0 st1 st2">8</text>
<text transform="matrix(1 0 0 1 946.9507 142.8158)" class="st0 st1 st2 st5"> </text>
<text transform="matrix(1 0 0 1 948.1509 142.8158)" class="st0 st1 st2">PM</text>
<text transform="matrix(1 0 0 1 986.3555 142.8158)" class="st0 st1 st2">9</text>
<text transform="matrix(1 0 0 1 991.9556 142.8158)" class="st0 st1 st2 st5"> </text>
<text transform="matrix(1 0 0 1 993.1555 142.8158)" class="st0 st1 st2">PM</text>
<text transform="matrix(1 0 0 1 1029.2744 142.8158)" class="st0 st1 st2">10</text>
<text transform="matrix(1 0 0 1 1038.9746 142.8158)" class="st0 st1 st2 st5"> </text>
<text transform="matrix(1 0 0 1 1040.2744 142.8158)" class="st0 st1 st2">PM</text>
<text transform="matrix(1 0 0 1 1075.0342 142.8158)" class="st0 st1 st2 st5">11</text>
<text transform="matrix(1 0 0 1 1083.9341 142.8158)" class="st0 st1 st2 st5"> </text>
<text transform="matrix(1 0 0 1 1085.2344 142.8158)" class="st0 st1 st2">PM</text>
<text transform="matrix(1 0 0 1 1119.6553 142.8158)" class="st0 st1 st2 st5">12</text>
<text transform="matrix(1 0 0 1 1128.5552 142.8158)" class="st0 st1 st2"> </text>
<text transform="matrix(1 0 0 1 1130.8555 142.8158)" class="st0 st1 st2">PM</text>
<rect y="23.3" class="st6" width="7.1" height="14"/>
<g>
	<text transform="matrix(1 0 0 1 15.2889 34.6976)" class="st1 st7">Anteprima</text>
</g>
<rect y="59.6" class="st8" width="7.1" height="14"/>
<g>
	<text transform="matrix(1 0 0 1 15.2889 71.0772)" class="st1 st7">Processing</text>
</g>
<rect x="115.4" y="59.6" class="st9" width="7.1" height="14"/>
<g>
	<text transform="matrix(1 0 0 1 130.6692 71.0772)" class="st1 st7">Quicktime Player</text>
</g>
<rect x="259.5" y="59.6" class="st10" width="7.1" height="14"/>
<g>
	<text transform="matrix(1 0 0 1 274.7681 71.0772)" class="st1 st7">Safari</text>
</g>
<rect x="349.2" y="59.6" class="st11" width="7.1" height="14"/>
<g>
	<text transform="matrix(1 0 0 1 364.4692 71.0772)" class="st1 st7">Screenflow</text>
</g>
<rect x="464.6" y="59.6" class="st12" width="7.1" height="14"/>
<g>
	<text transform="matrix(1 0 0 1 479.8501 71.0772)" class="st1 st7">Sistema</text>
</g>
<rect x="565.3" y="59.6" class="st13" width="7.1" height="14"/>
<g>
	<text transform="matrix(1 0 0 1 580.5515 71.0772)" class="st1 st7">Skype</text>
</g>
<rect x="656.8" y="59.6" class="st14" width="7.1" height="14"/>
<g>
	<text transform="matrix(1 0 0 1 672.0891 71.0772)" class="st1 st7">Spotify</text>
</g>
<rect x="751.4" y="59.6" class="st15" width="7.1" height="14"/>
<g>
	<text transform="matrix(1 0 0 1 766.6821 71.0772)" class="st1 st7">Sublime</text>
</g>
<rect x="111.1" y="23.3" class="st16" width="7.1" height="14"/>
<g>
	<text transform="matrix(1 0 0 1 126.3883 34.6976)" class="st1 st7">Finder</text>
</g>
<rect x="203.2" y="23.3" class="st17" width="7.1" height="14"/>
<g>
	<text transform="matrix(1 0 0 1 218.533 34.6976)" class="st1 st7">Foto</text>
</g>
<rect x="286.2" y="23.3" class="st18" width="7.1" height="14"/>
<g>
	<text transform="matrix(1 0 0 1 301.5093 34.6976)" class="st1 st7">Google Chrome</text>
</g>
<rect x="424.8" y="23.3" class="st19" width="7.1" height="14"/>
<g>
	<text transform="matrix(1 0 0 1 440.1244 34.6976)" class="st1 st7">Illustrator</text>
</g>
<rect x="531" y="23.3" class="st20" width="7.1" height="14"/>
<g>
	<text transform="matrix(1 0 0 1 546.3254 34.6976)" class="st1 st7">Keynote</text>
</g>
<rect x="632.4" y="23.3" class="st21" width="7.1" height="14"/>
<g>
	<text transform="matrix(1 0 0 1 647.6545 34.6976)" class="st1 st7">Mail</text>
</g>
<rect x="713.5" y="23.3" class="st22" width="7.1" height="14"/>
<g>
	<text transform="matrix(1 0 0 1 728.7883 34.6976)" class="st1 st7">Microsoft Teams</text>
</g>
<rect x="854.3" y="23.3" class="st23" width="7.1" height="14"/>
<g>
	<text transform="matrix(1 0 0 1 869.6327 34.6976)" class="st1 st7">Note</text>
</g>
<rect x="938.5" y="23.3" class="st24" width="7.1" height="14"/>
<g>
	<text transform="matrix(1 0 0 1 953.8337 34.6976)" class="st1 st7">Photo Booth</text>
</g>
<rect x="1060.1" y="23.3" class="st25" width="7.1" height="14"/>
<g>
	<text transform="matrix(1 0 0 1 1075.3467 34.6976)" class="st1 st7">Photoshop</text>
</g>
<line class="st26" x1="0" y1="98.5" x2="1149.3" y2="98.5"/>
<line class="st26" x1="0" y1="0.2" x2="1149.3" y2="0.2"/>
</svg>
