<?xml version="1.0" encoding="utf-8"?>
<!-- Generator: Adobe Illustrator 24.0.3, SVG Export Plug-In . SVG Version: 6.00 Build 0)  -->
<svg version="1.1" id="Livello_1" xmlns="http://www.w3.org/2000/svg" xmlns:xlink="http://www.w3.org/1999/xlink" x="0px" y="0px"
	 viewBox="0 0 1149.3 155.9" style="enable-background:new 0 0 1149.3 155.9;" xml:space="preserve">
<style type="text/css">
	.st0{font-family:'ArialMT';}
	.st1{font-size:12px;}
	.st2{fill:#808080;}
	.st3{font-family:'Helvetica';}
	.st4{font-size:10px;}
	.st5{letter-spacing:-2;}
	.st6{letter-spacing:-1;}
	.st7{fill:#C27FF8;}
	.st8{font-size:11px;}
	.st9{fill:#26FF00;}
	.st10{fill:#4786BF;}
	.st11{fill:#940044;}
	.st12{fill:#FFBEBF;}
	.st13{fill:#FF0000;}
	.st14{fill:#FF52FF;}
	.st15{fill:#FFF700;}
	.st16{fill:#FF6641;}
	.st17{fill:#FF008F;}
	.st18{fill:#000072;}
	.st19{fill:#A100FF;}
	.st20{fill:#0025FF;}
	.st21{fill:#A67C52;}
	.st22{fill:#BFFFB8;}
	.st23{fill:#A7BAFF;}
	.st24{fill:#CEFF00;}
	.st25{fill:#00C08B;}
	.st26{fill:#00FFFF;}
	.st27{fill:none;stroke:#808080;stroke-width:0.5;stroke-miterlimit:10;}
</style>
<text transform="matrix(1 0 0 1 88.5145 142.8366)" class="st0 st1">  </text>
<text transform="matrix(1 0 0 1 89.5145 142.8366)" class="st2 st3 st4">1</text>
<text transform="matrix(1 0 0 1 94.1146 142.8366)" class="st2 st3 st4 st5"> </text>
<text transform="matrix(1 0 0 1 94.8146 142.8366)" class="st2 st3 st4">H</text>
<text transform="matrix(1 0 0 1 42.6688 142.8366)" class="st0 st1">  </text>
<text transform="matrix(1 0 0 1 43.9521 142.8366)" class="st2 st3 st4">0</text>
<text transform="matrix(1 0 0 1 48.2689 142.8366)" class="st2 st3 st4 st5"> </text>
<text transform="matrix(1 0 0 1 50.3861 142.8366)" class="st2 st3 st4">H</text>
<text transform="matrix(1 0 0 1 133.363 142.8366)" class="st2 st3 st4">2</text>
<text transform="matrix(1 0 0 1 138.9631 142.8366)" class="st2 st3 st4 st6"> </text>
<text transform="matrix(1 0 0 1 140.1632 142.8366)" class="st2 st3 st4">H</text>
<text transform="matrix(1 0 0 1 178.5087 142.8366)" class="st2 st3 st4">3</text>
<text transform="matrix(1 0 0 1 184.1086 142.8366)" class="st2 st3 st4 st6"> </text>
<text transform="matrix(1 0 0 1 185.3087 142.8366)" class="st2 st3 st4">H</text>
<text transform="matrix(1 0 0 1 223.4603 142.8366)" class="st2 st3 st4">4</text>
<text transform="matrix(1 0 0 1 229.0604 142.8366)" class="st2 st3 st4 st6"> </text>
<text transform="matrix(1 0 0 1 230.2604 142.8366)" class="st2 st3 st4">H</text>
<text transform="matrix(1 0 0 1 268.7518 142.8366)" class="st2 st3 st4">5</text>
<text transform="matrix(1 0 0 1 274.3518 142.8366)" class="st2 st3 st4 st6"> </text>
<text transform="matrix(1 0 0 1 275.5518 142.8366)" class="st2 st3 st4">H</text>
<text transform="matrix(1 0 0 1 313.8739 142.8366)" class="st2 st3 st4">6</text>
<text transform="matrix(1 0 0 1 319.4738 142.8366)" class="st2 st3 st4 st6"> </text>
<text transform="matrix(1 0 0 1 320.6738 142.8366)" class="st2 st3 st4">H</text>
<text transform="matrix(1 0 0 1 358.9958 142.8366)" class="st2 st3 st4">7</text>
<text transform="matrix(1 0 0 1 364.5959 142.8366)" class="st2 st3 st4 st6"> </text>
<text transform="matrix(1 0 0 1 365.796 142.8366)" class="st2 st3 st4">H</text>
<text transform="matrix(1 0 0 1 404.118 142.8366)" class="st2 st3 st4">8</text>
<text transform="matrix(1 0 0 1 409.7181 142.8366)" class="st2 st3 st4 st6"> </text>
<text transform="matrix(1 0 0 1 410.9181 142.8366)" class="st2 st3 st4">H</text>
<text transform="matrix(1 0 0 1 449.1239 142.8366)" class="st2 st3 st4">9</text>
<text transform="matrix(1 0 0 1 454.7238 142.8366)" class="st2 st3 st4 st6"> </text>
<text transform="matrix(1 0 0 1 455.9238 142.8366)" class="st2 st3 st4">H</text>
<text transform="matrix(1 0 0 1 491.193 142.8366)" class="st2 st3 st4">10</text>
<text transform="matrix(1 0 0 1 501.7433 142.8366)" class="st2 st3 st4 st6"> </text>
<text transform="matrix(1 0 0 1 503.0433 142.8366)" class="st2 st3 st4">H</text>
<text transform="matrix(1 0 0 1 537.8031 142.8366)" class="st2 st3 st4 st6">11</text>
<text transform="matrix(1 0 0 1 546.703 142.8366)" class="st2 st3 st4 st6"> </text>
<text transform="matrix(1 0 0 1 548.0032 142.8366)" class="st2 st3 st4">H</text>
<text transform="matrix(1 0 0 1 582.1417 142.8366)" class="st2 st3 st4 st6">12</text>
<text transform="matrix(1 0 0 1 591.0417 142.8366)" class="st2 st3 st4"> </text>
<text transform="matrix(1 0 0 1 593.6251 142.8366)" class="st2 st3 st4">H</text>
<text transform="matrix(1 0 0 1 627.2638 142.8366)" class="st2 st3 st4 st6">13</text>
<text transform="matrix(1 0 0 1 636.4473 142.8366)" class="st2 st3 st4"> </text>
<text transform="matrix(1 0 0 1 638.7473 142.8366)" class="st2 st3 st4">H</text>
<text transform="matrix(1 0 0 1 672.079 142.8366)" class="st2 st3 st4 st6">14</text>
<text transform="matrix(1 0 0 1 681.5459 142.8366)" class="st2 st3 st4"> </text>
<text transform="matrix(1 0 0 1 683.8458 142.8366)" class="st2 st3 st4">H</text>
<text transform="matrix(1 0 0 1 717.2245 142.8366)" class="st2 st3 st4 st6">15</text>
<text transform="matrix(1 0 0 1 726.6914 142.8366)" class="st2 st3 st4"> </text>
<text transform="matrix(1 0 0 1 728.9912 142.8366)" class="st2 st3 st4">H</text>
<text transform="matrix(1 0 0 1 762.1758 142.8366)" class="st2 st3 st4 st6">16</text>
<text transform="matrix(1 0 0 1 771.6427 142.8366)" class="st2 st3 st4"> </text>
<text transform="matrix(1 0 0 1 773.9425 142.8366)" class="st2 st3 st4">H</text>
<text transform="matrix(1 0 0 1 807.4678 142.8366)" class="st2 st3 st4 st6">17</text>
<text transform="matrix(1 0 0 1 816.9346 142.8366)" class="st2 st3 st4"> </text>
<text transform="matrix(1 0 0 1 819.2346 142.8366)" class="st2 st3 st4">H</text>
<text transform="matrix(1 0 0 1 852.5897 142.8366)" class="st2 st3 st4 st6">18</text>
<text transform="matrix(1 0 0 1 862.0569 142.8366)" class="st2 st3 st4"> </text>
<text transform="matrix(1 0 0 1 864.3567 142.8366)" class="st2 st3 st4">H</text>
<text transform="matrix(1 0 0 1 897.7118 142.8366)" class="st2 st3 st4 st6">19</text>
<text transform="matrix(1 0 0 1 907.1787 142.8366)" class="st2 st3 st4"> </text>
<text transform="matrix(1 0 0 1 909.4785 142.8366)" class="st2 st3 st4">H</text>
<text transform="matrix(1 0 0 1 942.551 142.8366)" class="st2 st3 st4">20</text>
<text transform="matrix(1 0 0 1 953.6511 142.8366)" class="st2 st3 st4 st6"> </text>
<text transform="matrix(1 0 0 1 955.4509 142.8366)" class="st2 st3 st4">H</text>
<text transform="matrix(1 0 0 1 987.5571 142.8366)" class="st2 st3 st4">21</text>
<text transform="matrix(1 0 0 1 998.6572 142.8366)" class="st2 st3 st4 st6"> </text>
<text transform="matrix(1 0 0 1 1000.457 142.8366)" class="st2 st3 st4">H</text>
<text transform="matrix(1 0 0 1 1032.5571 142.8366)" class="st2 st3 st4">22</text>
<text transform="matrix(1 0 0 1 1043.6572 142.8366)" class="st2 st3 st4 st6"> </text>
<text transform="matrix(1 0 0 1 1045.457 142.8366)" class="st2 st3 st4">H</text>
<text transform="matrix(1 0 0 1 1077.9165 142.8366)" class="st2 st3 st4">23</text>
<text transform="matrix(1 0 0 1 1089.0166 142.8366)" class="st2 st3 st4 st6"> </text>
<text transform="matrix(1 0 0 1 1090.8164 142.8366)" class="st2 st3 st4">H</text>
<text transform="matrix(1 0 0 1 1123.0386 142.8366)" class="st2 st3 st4">24</text>
<text transform="matrix(1 0 0 1 1134.1387 142.8366)" class="st2 st3 st4 st6"> </text>
<text transform="matrix(1 0 0 1 1135.9385 142.8366)" class="st2 st3 st4">H</text>
<rect y="23.3" class="st7" width="7.1" height="14"/>
<g>
	<text transform="matrix(1 0 0 1 15.2889 34.6976)" class="st3 st8">Anteprima</text>
</g>
<rect y="59.6" class="st9" width="7.1" height="14"/>
<g>
	<text transform="matrix(1 0 0 1 15.2889 71.0772)" class="st3 st8">Processing</text>
</g>
<rect x="115.4" y="59.6" class="st10" width="7.1" height="14"/>
<g>
	<text transform="matrix(1 0 0 1 130.6692 71.0772)" class="st3 st8">Quicktime Player</text>
</g>
<rect x="259.5" y="59.6" class="st11" width="7.1" height="14"/>
<g>
	<text transform="matrix(1 0 0 1 274.7681 71.0772)" class="st3 st8">Safari</text>
</g>
<rect x="349.2" y="59.6" class="st12" width="7.1" height="14"/>
<g>
	<text transform="matrix(1 0 0 1 364.4692 71.0772)" class="st3 st8">Screenflow</text>
</g>
<rect x="464.6" y="59.6" class="st13" width="7.1" height="14"/>
<g>
	<text transform="matrix(1 0 0 1 479.8501 71.0772)" class="st3 st8">Sistema</text>
</g>
<rect x="565.3" y="59.6" class="st14" width="7.1" height="14"/>
<g>
	<text transform="matrix(1 0 0 1 580.5515 71.0772)" class="st3 st8">Skype</text>
</g>
<rect x="656.8" y="59.6" class="st15" width="7.1" height="14"/>
<g>
	<text transform="matrix(1 0 0 1 672.0891 71.0772)" class="st3 st8">Spotify</text>
</g>
<rect x="751.4" y="59.6" class="st16" width="7.1" height="14"/>
<g>
	<text transform="matrix(1 0 0 1 766.6821 71.0772)" class="st3 st8">Sublime</text>
</g>
<rect x="111.1" y="23.3" class="st17" width="7.1" height="14"/>
<g>
	<text transform="matrix(1 0 0 1 126.3883 34.6976)" class="st3 st8">Finder</text>
</g>
<rect x="203.2" y="23.3" class="st18" width="7.1" height="14"/>
<g>
	<text transform="matrix(1 0 0 1 218.533 34.6976)" class="st3 st8">Foto</text>
</g>
<rect x="286.2" y="23.3" class="st19" width="7.1" height="14"/>
<g>
	<text transform="matrix(1 0 0 1 301.5093 34.6976)" class="st3 st8">Google Chrome</text>
</g>
<rect x="424.8" y="23.3" class="st20" width="7.1" height="14"/>
<g>
	<text transform="matrix(1 0 0 1 440.1244 34.6976)" class="st3 st8">Illustrator</text>
</g>
<rect x="531" y="23.3" class="st21" width="7.1" height="14"/>
<g>
	<text transform="matrix(1 0 0 1 546.3254 34.6976)" class="st3 st8">Keynote</text>
</g>
<rect x="632.4" y="23.3" class="st22" width="7.1" height="14"/>
<g>
	<text transform="matrix(1 0 0 1 647.6545 34.6976)" class="st3 st8">Mail</text>
</g>
<rect x="713.5" y="23.3" class="st23" width="7.1" height="14"/>
<g>
	<text transform="matrix(1 0 0 1 728.7883 34.6976)" class="st3 st8">Microsoft Teams</text>
</g>
<rect x="854.3" y="23.3" class="st24" width="7.1" height="14"/>
<g>
	<text transform="matrix(1 0 0 1 869.6327 34.6976)" class="st3 st8">Note</text>
</g>
<rect x="938.5" y="23.3" class="st25" width="7.1" height="14"/>
<g>
	<text transform="matrix(1 0 0 1 953.8337 34.6976)" class="st3 st8">Photo Booth</text>
</g>
<rect x="1060.1" y="23.3" class="st26" width="7.1" height="14"/>
<g>
	<text transform="matrix(1 0 0 1 1075.3467 34.6976)" class="st3 st8">Photoshop</text>
</g>
<line class="st27" x1="0" y1="98.5" x2="1149.3" y2="98.5"/>
<line class="st27" x1="0" y1="0.2" x2="1149.3" y2="0.2"/>
</svg>
